<svg width="22" height="22" viewBox="0 0 22 22" fill="none" xmlns="http://www.w3.org/2000/svg">
<path d="M0.657104 21.1057H2.7853V9.40068C2.7853 9.2048 2.94412 9.04598 3.14 9.04598H8.10579V0.887902C8.10579 0.69202 8.2646 0.533203 8.46048 0.533203H17.6827C17.8785 0.533203 18.0374 0.69202 18.0374 0.887902V21.1057H21.2297C21.4255 21.1057 21.5844 21.2646 21.5844 21.4604C21.5844 21.6563 21.4255 21.8151 21.2297 21.8151H0.657104C0.461222 21.8151 0.302406 21.6563 0.302406 21.4604C0.302406 21.2646 0.461222 21.1057 0.657104 21.1057ZM14.1357 21.1057H15.5545V17.9135C15.5545 17.7176 15.3956 17.5588 15.1998 17.5588H14.4904C14.2945 17.5588 14.1357 17.7176 14.1357 17.9135V21.1057ZM12.7169 9.40068V21.1057H13.4263V17.9135C13.4263 17.3258 13.9027 16.8494 14.4904 16.8494H15.1998C15.7875 16.8494 16.2639 17.3258 16.2639 17.9135V21.1057H17.328V1.2426H8.81518V9.04598H12.3622C12.5581 9.04598 12.7169 9.2048 12.7169 9.40068ZM3.4947 21.1057H12.0075V9.75538H3.4947V21.1057Z" fill="#84829A"/>
<path d="M10.2337 5.50098H12.3619C12.5577 5.50098 12.7166 5.65979 12.7166 5.85568V7.98387C12.7166 8.17975 12.5577 8.33857 12.3619 8.33857H10.2337C10.0378 8.33857 9.87896 8.17975 9.87896 7.98387V5.85568C9.87896 5.65979 10.0378 5.50098 10.2337 5.50098ZM10.5884 7.62917H12.0072V6.21037H10.5884V7.62917Z" fill="#84829A"/>
<path d="M10.2337 1.95215H12.3619C12.5577 1.95215 12.7166 2.11096 12.7166 2.30685V4.43504C12.7166 4.63092 12.5577 4.78974 12.3619 4.78974H10.2337C10.0378 4.78974 9.87896 4.63092 9.87896 4.43504V2.30685C9.87896 2.11096 10.0378 1.95215 10.2337 1.95215ZM10.5884 4.08034H12.0072V2.66155H10.5884V4.08034Z" fill="#84829A"/>
<path d="M13.7808 5.50098H15.909C16.1049 5.50098 16.2637 5.65979 16.2637 5.85568V7.98387C16.2637 8.17975 16.1049 8.33857 15.909 8.33857H13.7808C13.5849 8.33857 13.4261 8.17975 13.4261 7.98387V5.85568C13.4261 5.65979 13.5849 5.50098 13.7808 5.50098ZM14.1355 7.62917H15.5543V6.21037H14.1355V7.62917Z" fill="#84829A"/>
<path d="M13.7808 1.95215H15.909C16.1049 1.95215 16.2637 2.11096 16.2637 2.30685V4.43504C16.2637 4.63092 16.1049 4.78974 15.909 4.78974H13.7808C13.5849 4.78974 13.4261 4.63092 13.4261 4.43504V2.30685C13.4261 2.11096 13.5849 1.95215 13.7808 1.95215ZM14.1355 4.08034H15.5543V2.66155H14.1355V4.08034Z" fill="#84829A"/>
<path d="M13.7808 9.04688H15.909C16.1049 9.04688 16.2637 9.20569 16.2637 9.40157V11.5298C16.2637 11.7257 16.1049 11.8845 15.909 11.8845H13.7808C13.5849 11.8845 13.4261 11.7257 13.4261 11.5298V9.40157C13.4261 9.20569 13.5849 9.04688 13.7808 9.04688ZM14.1355 11.1751H15.5543V9.75627H14.1355V11.1751Z" fill="#84829A"/>
<path d="M13.7808 12.5928H15.909C16.1049 12.5928 16.2637 12.7516 16.2637 12.9475V15.0757C16.2637 15.2715 16.1049 15.4304 15.909 15.4304H13.7808C13.5849 15.4304 13.4261 15.2715 13.4261 15.0757V12.9475C13.4261 12.7516 13.5849 12.5928 13.7808 12.5928ZM14.1355 14.721H15.5543V13.3022H14.1355V14.721Z" fill="#84829A"/>
<path d="M7.04166 16.8474H4.91347C4.71759 16.8474 4.55877 16.6885 4.55877 16.4927V14.3645C4.55877 14.1686 4.71759 14.0098 4.91347 14.0098H7.04166C7.23755 14.0098 7.39636 14.1686 7.39636 14.3645V16.4927C7.39636 16.6885 7.23755 16.8474 7.04166 16.8474ZM6.68696 14.7192H5.26817V16.138H6.68696V14.7192Z" fill="#84829A"/>
<path d="M7.04166 13.3024H4.91347C4.71759 13.3024 4.55877 13.1436 4.55877 12.9477V10.8195C4.55877 10.6237 4.71759 10.4648 4.91347 10.4648H7.04166C7.23755 10.4648 7.39636 10.6237 7.39636 10.8195V12.9477C7.39636 13.1436 7.23755 13.3024 7.04166 13.3024ZM6.68696 11.1742H5.26817V12.593H6.68696V11.1742Z" fill="#84829A"/>
<path d="M7.04166 20.3952H4.91347C4.71759 20.3952 4.55877 20.2364 4.55877 20.0405V17.9123C4.55877 17.7164 4.71759 17.5576 4.91347 17.5576H7.04166C7.23755 17.5576 7.39636 17.7164 7.39636 17.9123V20.0405C7.39636 20.2364 7.23755 20.3952 7.04166 20.3952ZM6.68696 18.267H5.26817V19.6858H6.68696V18.267Z" fill="#84829A"/>
<path d="M10.5888 16.8474H8.46059C8.26471 16.8474 8.10589 16.6885 8.10589 16.4927V14.3645C8.10589 14.1686 8.26471 14.0098 8.46059 14.0098H10.5888C10.7847 14.0098 10.9435 14.1686 10.9435 14.3645V16.4927C10.9435 16.6885 10.7847 16.8474 10.5888 16.8474ZM10.2341 14.7192H8.81529V16.138H10.2341V14.7192Z" fill="#84829A"/>
<path d="M10.5888 13.3024H8.46059C8.26471 13.3024 8.10589 13.1436 8.10589 12.9477V10.8195C8.10589 10.6237 8.26471 10.4648 8.46059 10.4648H10.5888C10.7847 10.4648 10.9435 10.6237 10.9435 10.8195V12.9477C10.9435 13.1436 10.7847 13.3024 10.5888 13.3024ZM10.2341 11.1742H8.81529V12.593H10.2341V11.1742Z" fill="#84829A"/>
<path d="M10.5888 20.3952H8.46059C8.2647 20.3952 8.10589 20.2364 8.10589 20.0405V17.9123C8.10589 17.7164 8.2647 17.5576 8.46059 17.5576H10.5888C10.7847 17.5576 10.9435 17.7164 10.9435 17.9123V20.0405C10.9435 20.2364 10.7847 20.3952 10.5888 20.3952ZM10.2341 18.267H8.81529V19.6858H10.2341V18.267Z" fill="#84829A"/>
</svg>
