<svg width="30" height="30" viewBox="0 0 30 30" fill="none" xmlns="http://www.w3.org/2000/svg">
<path d="M1.41881 6.48517C1.02434 6.48517 0.701591 6.16242 0.694418 5.76795V1.25662C0.694418 0.854977 1.01717 0.532227 1.41881 0.532227H5.93014C6.32461 0.532227 6.64736 0.854977 6.64736 1.25662V2.82734H24.0041V1.25662C24.0041 0.862149 24.3269 0.539399 24.7214 0.532227H29.2327C29.6272 0.532227 29.9499 0.854977 29.9571 1.25662V5.76795C29.9571 6.16242 29.6343 6.48517 29.2327 6.48517H27.662V23.842H29.2327C29.6272 23.842 29.9499 24.1647 29.9571 24.5592V29.0705C29.9571 29.465 29.6343 29.7877 29.2327 29.7949H24.7214C24.3269 29.7949 24.0041 29.4721 24.0041 29.0705V27.4998H6.64736V29.0705C6.64736 29.465 6.32461 29.7877 5.93014 29.7949H1.41881C1.02434 29.7949 0.701591 29.4721 0.694418 29.0705V24.5592C0.694418 24.1647 1.01717 23.842 1.41881 23.842H2.98953V6.48517H1.41881ZM28.5226 5.05073V1.96667H25.4386V5.05073H28.5226ZM25.4386 28.3605H28.5226V25.2764H25.4386V28.3605ZM6.64736 24.5592V26.0653H24.0041V24.5592C24.0041 24.1647 24.3269 23.842 24.7214 23.842H26.2275V6.48517H24.7214C24.3269 6.48517 24.0041 6.16242 24.0041 5.76795V4.26178H6.64736V5.76795C6.64736 6.16242 6.32461 6.48517 5.93014 6.48517H4.42397V23.842H5.93014C6.32461 23.842 6.64736 24.1647 6.64736 24.5592ZM2.12886 25.2764V28.3605H5.21292V25.2764H2.12886ZM5.21292 5.05073V1.96667H2.12886V5.05073H5.21292Z" fill="white"/>
</svg>
