<svg width="27" height="26" viewBox="0 0 27 26" fill="none" xmlns="http://www.w3.org/2000/svg">
<path d="M24.7653 3.12652C23.3893 1.64753 21.4612 0.806009 19.4411 0.802889C17.4194 0.805229 15.4893 1.64631 14.1112 3.12558L13.6415 3.62188L13.1719 3.12558C10.4373 0.18247 5.83464 0.0134518 2.89159 2.74799C2.76117 2.86921 2.63522 2.99511 2.514 3.12558C-0.386827 6.25447 -0.386827 11.09 2.514 14.2189L12.9513 25.2258C13.3124 25.607 13.9142 25.6233 14.2954 25.2622C14.3079 25.2504 14.32 25.2382 14.3318 25.2258L24.7654 14.2189C27.666 11.0904 27.666 6.25508 24.7653 3.12652ZM23.3896 12.9097H23.3887L13.6415 23.1902L3.89355 12.9097C1.67749 10.519 1.67749 6.82458 3.89355 4.43382C5.906 2.25263 9.30569 2.11587 11.4869 4.12832C11.5928 4.22603 11.6947 4.32792 11.7924 4.43382L12.9513 5.6565C13.3333 6.03598 13.9499 6.03598 14.3318 5.6565L15.4908 4.43477C17.5032 2.25358 20.9029 2.11682 23.0841 4.12927C23.19 4.22698 23.2919 4.32887 23.3896 4.43477C25.6249 6.82932 25.6413 10.5304 23.3896 12.9097Z" fill="#4152CA"/>
</svg>
