<svg width="20" height="19" viewBox="0 0 20 19" fill="none" xmlns="http://www.w3.org/2000/svg">
<g clip-path="url(#clip0_302_2057)">
<path d="M19.0865 0.237728C18.5959 0.0941376 6.59413 -1.10078 2.37919 4.59367C0.512442 7.11632 0.484401 10.5745 2.28565 14.8713C1.82872 15.8197 1.42872 16.8187 1.10273 17.8728C1.00363 18.1931 1.18289 18.5328 1.50285 18.6315C1.56249 18.6501 1.6229 18.6588 1.68255 18.6588C1.94122 18.6588 2.18137 18.4917 2.26153 18.2315C5.47406 7.8453 15.9141 2.82061 19.1156 1.55125C19.4272 1.42762 19.8436 0.459297 19.0865 0.237728Z" fill="#84829A"/>
<path d="M4.21228 16.1714C5.94995 16.9004 7.68737 17.274 9.30305 17.274C10.7553 17.274 12.1096 16.9754 13.2767 16.3699C15.6254 15.1515 17.0607 12.8209 17.4272 9.62926C17.8006 6.37655 18.2655 4.33915 18.6533 3.09277C15.2013 4.68514 7.79942 8.81268 4.21228 16.1714Z" fill="#84829A"/>
</g>
<defs>
<clipPath id="clip0_302_2057">
<rect width="18.6217" height="18.6217" fill="white" transform="translate(0.924194 0.0361328)"/>
</clipPath>
</defs>
</svg>
