<svg width="20" height="20" viewBox="0 0 20 20" fill="none" xmlns="http://www.w3.org/2000/svg">
<g clip-path="url(#clip0_302_2071)">
<path d="M18.3789 0.706055C18.2756 0.706016 18.1737 0.73002 18.0813 0.776197L13.0416 3.29675L7.34277 0.763571C7.33346 0.759597 7.32282 0.758895 7.31284 0.75492C7.2872 0.745334 7.26097 0.737346 7.23436 0.730994C7.2079 0.723863 7.18101 0.718291 7.15389 0.714355C7.09988 0.709913 7.0456 0.709913 6.99163 0.714355C6.96451 0.718291 6.93762 0.723863 6.91116 0.730994C6.88455 0.737346 6.85832 0.745334 6.83268 0.75492C6.8227 0.758895 6.81207 0.759558 6.80275 0.763571L0.817297 3.42379C0.577021 3.53048 0.422202 3.76873 0.422241 4.03161V18.6627C0.422358 18.8877 0.536183 19.0974 0.724826 19.22C0.913508 19.3429 1.15148 19.3619 1.35727 19.2706L7.07272 16.7301L12.7882 19.2706C12.7981 19.2746 12.8088 19.2706 12.8188 19.2766C12.9798 19.3486 13.1646 19.3445 13.3222 19.2653C13.3328 19.2607 13.3448 19.2653 13.3554 19.258L18.6758 16.5977C18.9013 16.4851 19.0437 16.2546 19.0436 16.0025V1.37143C19.0438 1.00412 18.7462 0.706211 18.3789 0.706055ZM6.4077 15.5702L1.75233 17.6392V4.46392L6.4077 2.39492V15.5702ZM12.3932 17.6392L7.73779 15.5702V2.39492L12.3932 4.46388V17.6392ZM17.7135 15.5915L13.7232 17.5867V4.4426L17.7135 2.44745V15.5915Z" fill="#84829A"/>
</g>
<defs>
<clipPath id="clip0_302_2071">
<rect width="18.6217" height="18.6217" fill="white" transform="translate(0.420776 0.704102)"/>
</clipPath>
</defs>
</svg>
