<svg width="20" height="19" viewBox="0 0 20 19" fill="none" xmlns="http://www.w3.org/2000/svg">
<path d="M17.3452 1.68835L8.94211 10.1224C8.84578 10.0666 8.74448 10.0199 8.63951 9.98277L3.09179 8.10508C2.92402 8.06303 2.77511 7.96613 2.66871 7.82977C2.56231 7.69341 2.50452 7.52541 2.50452 7.35245C2.50452 7.17949 2.56231 7.01149 2.66871 6.87513C2.77511 6.73877 2.92402 6.64187 3.09179 6.59982L16.8563 1.70387C16.9463 1.67331 17.0406 1.65759 17.1357 1.65731C17.2067 1.65617 17.2775 1.66665 17.3452 1.68835Z" fill="#84829A"/>
<path d="M17.8804 2.72905L12.9844 16.5091C12.9304 16.6697 12.8254 16.8082 12.6853 16.9035C12.5451 16.9988 12.3777 17.0456 12.2085 17.0367C12.0374 17.0446 11.8684 16.9955 11.7281 16.8973C11.5877 16.799 11.4838 16.6571 11.4326 16.4936L9.58595 10.9459C9.54886 10.8409 9.5021 10.7396 9.44629 10.6433L17.8959 2.24023C17.9435 2.40059 17.9381 2.57205 17.8804 2.72905Z" fill="#84829A"/>
</svg>
