<svg width="31" height="26" viewBox="0 0 31 26" fill="none" xmlns="http://www.w3.org/2000/svg">
<path d="M5.3498 14.9355C4.95519 14.9355 4.56944 15.0526 4.24133 15.2718C3.91323 15.491 3.6575 15.8026 3.50649 16.1672C3.35548 16.5318 3.31597 16.9329 3.39295 17.32C3.46994 17.707 3.65996 18.0625 3.93899 18.3415C4.21802 18.6206 4.57353 18.8106 4.96056 18.8876C5.34759 18.9646 5.74875 18.9251 6.11332 18.774C6.47789 18.623 6.7895 18.3673 7.00873 18.0392C7.22797 17.7111 7.34498 17.3253 7.34498 16.9307C7.34498 16.4016 7.13478 15.8941 6.76061 15.5199C6.38644 15.1458 5.87895 14.9355 5.3498 14.9355ZM5.3498 17.9283C5.15249 17.9283 4.95962 17.8698 4.79557 17.7602C4.63151 17.6506 4.50365 17.4948 4.42814 17.3125C4.35264 17.1302 4.33288 16.9296 4.37138 16.7361C4.40987 16.5426 4.50488 16.3648 4.64439 16.2253C4.78391 16.0858 4.96166 15.9908 5.15518 15.9523C5.34869 15.9138 5.54927 15.9336 5.73156 16.0091C5.91385 16.0846 6.06965 16.2124 6.17927 16.3765C6.28888 16.5406 6.34739 16.7334 6.34739 16.9307C6.34739 17.1953 6.24229 17.4491 6.0552 17.6361C5.86812 17.8232 5.61438 17.9283 5.3498 17.9283Z" fill="white"/>
<path d="M25.3016 14.9355C24.907 14.9355 24.5213 15.0526 24.1932 15.2718C23.8651 15.491 23.6093 15.8026 23.4583 16.1672C23.3073 16.5318 23.2678 16.9329 23.3448 17.32C23.4218 17.707 23.6118 18.0625 23.8908 18.3415C24.1699 18.6206 24.5254 18.8106 24.9124 18.8876C25.2994 18.9646 25.7006 18.9251 26.0652 18.774C26.4297 18.623 26.7413 18.3673 26.9606 18.0392C27.1798 17.7111 27.2968 17.3253 27.2968 16.9307C27.2968 16.4016 27.0866 15.8941 26.7124 15.5199C26.3383 15.1458 25.8308 14.9355 25.3016 14.9355ZM25.3016 17.9283C25.1043 17.9283 24.9115 17.8698 24.7474 17.7602C24.5834 17.6506 24.4555 17.4948 24.38 17.3125C24.3045 17.1302 24.2847 16.9296 24.3232 16.7361C24.3617 16.5426 24.4567 16.3648 24.5962 16.2253C24.7357 16.0858 24.9135 15.9908 25.107 15.9523C25.3005 15.9138 25.5011 15.9336 25.6834 16.0091C25.8657 16.0846 26.0215 16.2124 26.1311 16.3765C26.2407 16.5406 26.2992 16.7334 26.2992 16.9307C26.2992 17.1953 26.1941 17.4491 26.007 17.6361C25.82 17.8232 25.5662 17.9283 25.3016 17.9283Z" fill="white"/>
<path d="M10.8365 17.4287H19.8149V18.4263H10.8365V17.4287Z" fill="white"/>
<path d="M10.8365 15.4346H19.8149V16.4322H10.8365V15.4346Z" fill="white"/>
<path d="M13.8294 7.95215H16.8222V8.94974H13.8294V7.95215Z" fill="white"/>
<path d="M30.2896 12.441V11.4435C30.2884 11.047 30.1304 10.667 29.85 10.3867C29.5697 10.1063 29.1897 9.94825 28.7932 9.94707H26.818L25.7855 6.32581L25.4762 5.09379C25.3951 4.77029 25.2082 4.48318 24.9452 4.27804C24.6822 4.07291 24.3583 3.9615 24.0247 3.96152H19.8149V1.96634C19.8141 1.70201 19.7088 1.44872 19.5218 1.26181C19.3349 1.0749 19.0816 0.969539 18.8173 0.96875H11.8342C11.5698 0.969539 11.3166 1.0749 11.1296 1.26181C10.9427 1.44872 10.8374 1.70201 10.8366 1.96634V3.96152H6.62675C6.29323 3.9615 5.96926 4.07291 5.70629 4.27804C5.44332 4.48318 5.25641 4.77029 5.17526 5.09379L4.87099 6.32083L3.8335 9.94707H1.85826C1.46176 9.94825 1.08184 10.1063 0.801467 10.3867C0.521096 10.667 0.363062 11.047 0.361877 11.4435V12.441C0.362685 12.6937 0.427639 12.9421 0.55065 13.1628C0.673662 13.3835 0.850703 13.5694 1.06518 13.703C0.614269 14.1663 0.36194 14.7873 0.361877 15.4338V21.4194C0.362565 21.6286 0.40734 21.8354 0.493283 22.0262C0.579226 22.217 0.704409 22.3875 0.860673 22.5267V24.4121C0.861857 24.8086 1.01989 25.1886 1.30026 25.4689C1.58063 25.7493 1.96056 25.9073 2.35706 25.9085H6.34742C6.74393 25.9073 7.12385 25.7493 7.40422 25.4689C7.68459 25.1886 7.84263 24.8086 7.84381 24.4121V22.9158H22.8077V24.4121C22.8089 24.8086 22.9669 25.1886 23.2473 25.4689C23.5276 25.7493 23.9076 25.9073 24.3041 25.9085H28.2944C28.6909 25.9073 29.0709 25.7493 29.3512 25.4689C29.6316 25.1886 29.7896 24.8086 29.7908 24.4121V22.5267C29.9471 22.3875 30.0723 22.217 30.1582 22.0262C30.2442 21.8354 30.2889 21.6286 30.2896 21.4194V15.4338C30.2896 14.7873 30.0372 14.1663 29.5863 13.703C29.8008 13.5694 29.9778 13.3835 30.1008 13.1628C30.2239 12.9421 30.2888 12.6937 30.2896 12.441ZM11.8342 1.96634H18.8173V3.96152H11.8342V1.96634ZM6.14292 5.3382C6.16965 5.23006 6.23182 5.13398 6.31951 5.06528C6.40719 4.99657 6.51535 4.9592 6.62675 4.95911H24.0247C24.1361 4.9592 24.2443 4.99657 24.332 5.06528C24.4197 5.13398 24.4818 5.23006 24.5086 5.3382L24.6632 5.95671H5.98829L6.14292 5.3382ZM5.72393 6.9543H24.9276L26.6334 12.9398H12.2881C12.1708 12.2428 11.8104 11.6098 11.2707 11.1533C10.731 10.6968 10.0471 10.4463 9.3402 10.4463C8.63335 10.4463 7.94936 10.6968 7.40968 11.1533C6.87 11.6098 6.50955 12.2428 6.39232 12.9398H4.01805L5.72393 6.9543ZM11.2656 12.9398H7.41485C7.52375 12.5118 7.77217 12.1323 8.12084 11.8613C8.46951 11.5902 8.89856 11.4431 9.3402 11.4431C9.78184 11.4431 10.2109 11.5902 10.5596 11.8613C10.9082 12.1323 11.1566 12.5118 11.2656 12.9398ZM1.35947 11.4435C1.35947 11.3112 1.41202 11.1843 1.50556 11.0908C1.59911 10.9972 1.72598 10.9447 1.85826 10.9447H3.54918L2.98055 12.9398H1.85826C1.72598 12.9398 1.59911 12.8873 1.50556 12.7937C1.41202 12.7002 1.35947 12.5733 1.35947 12.441V11.4435ZM6.84622 24.4121C6.84622 24.5444 6.79367 24.6713 6.70013 24.7648C6.60658 24.8584 6.47971 24.9109 6.34742 24.9109H2.35706C2.22477 24.9109 2.0979 24.8584 2.00436 24.7648C1.91082 24.6713 1.85826 24.5444 1.85826 24.4121V22.9158H6.84622V24.4121ZM28.7932 24.4121C28.7932 24.5444 28.7407 24.6713 28.6471 24.7648C28.5536 24.8584 28.4267 24.9109 28.2944 24.9109H24.3041C24.1718 24.9109 24.0449 24.8584 23.9514 24.7648C23.8578 24.6713 23.8053 24.5444 23.8053 24.4121V22.9158H28.7932V24.4121ZM29.292 21.4194C29.292 21.5517 29.2395 21.6785 29.1459 21.7721C29.0524 21.8656 28.9255 21.9182 28.7932 21.9182H1.85826C1.72598 21.9182 1.59911 21.8656 1.50556 21.7721C1.41202 21.6785 1.35947 21.5517 1.35947 21.4194V20.9206H29.292V21.4194ZM29.292 19.923H1.35947V15.4338C1.36065 15.0373 1.51869 14.6574 1.79906 14.377C2.07943 14.0967 2.45935 13.9386 2.85586 13.9374H27.7956C28.1921 13.9386 28.5721 14.0967 28.8524 14.377C29.1328 14.6574 29.2908 15.0373 29.292 15.4338V19.923ZM29.292 12.441C29.292 12.5733 29.2395 12.7002 29.1459 12.7937C29.0524 12.8873 28.9255 12.9398 28.7932 12.9398H27.6709L27.1023 10.9447H28.7932C28.9255 10.9447 29.0524 10.9972 29.1459 11.0908C29.2395 11.1843 29.292 11.3112 29.292 11.4435V12.441Z" fill="white"/>
</svg>
