<svg width="30" height="25" viewBox="0 0 30 25" fill="none" xmlns="http://www.w3.org/2000/svg">
<path d="M27.0553 24.6809C26.4565 24.6931 25.8684 24.5218 25.3698 24.19C24.9988 23.9475 24.5651 23.8184 24.1218 23.8184C23.6786 23.8184 23.2449 23.9475 22.8738 24.19C22.3702 24.5106 21.7856 24.6809 21.1886 24.6809C20.5916 24.6809 20.007 24.5106 19.5034 24.19C19.1323 23.9473 18.6985 23.818 18.2551 23.818C17.8117 23.818 17.378 23.9473 17.0069 24.19C16.5033 24.5106 15.9187 24.6809 15.3217 24.6809C14.7247 24.6809 14.14 24.5106 13.6364 24.19C13.2656 23.9474 12.8322 23.8182 12.3891 23.8182C11.946 23.8182 11.5125 23.9474 11.1417 24.19C10.6851 24.4934 10.1523 24.662 9.60423 24.6766L9.57404 23.8138C9.97884 23.8042 10.3719 23.6761 10.7047 23.4454C11.2082 23.1248 11.7927 22.9546 12.3895 22.9546C12.9864 22.9546 13.5708 23.1248 14.0743 23.4454C14.4453 23.688 14.879 23.8171 15.3223 23.8171C15.7656 23.8171 16.1993 23.688 16.5703 23.4454C17.074 23.1245 17.6588 22.9541 18.256 22.9541C18.8532 22.9541 19.438 23.1245 19.9417 23.4454C20.3127 23.688 20.7464 23.8171 21.1897 23.8171C21.633 23.8171 22.0666 23.688 22.4377 23.4454C22.9413 23.1249 23.5259 22.9546 24.1229 22.9546C24.7199 22.9546 25.3045 23.1249 25.8081 23.4454C26.1801 23.6885 26.6148 23.818 27.0592 23.818C27.5035 23.818 27.9383 23.6885 28.3102 23.4454C28.8082 23.1145 29.3953 22.9435 29.9931 22.9553V23.8181C29.548 23.8059 29.1106 23.936 28.7446 24.1895C28.2448 24.5219 27.6553 24.6933 27.0553 24.6809Z" fill="white"/>
<path d="M3.59203 24.6804C2.99339 24.6928 2.40533 24.5214 1.90701 24.1895C1.54106 23.9358 1.10369 23.8055 0.658569 23.8176V22.9548C1.25735 22.9424 1.84556 23.1137 2.34401 23.4458C2.70976 23.6995 3.14702 23.8298 3.59203 23.8176C4.03723 23.8298 4.47468 23.6994 4.84047 23.4453C5.33786 23.1135 5.9251 22.9423 6.52289 22.9548C7.1062 22.9417 7.67985 23.1052 8.16865 23.4238L7.73338 24.1683C7.37633 23.928 6.95309 23.8054 6.52289 23.8176C6.07953 23.8057 5.64394 23.9356 5.27963 24.1886C4.78074 24.5215 4.19165 24.6932 3.59203 24.6804Z" fill="white"/>
<path d="M27.0567 21.6618C26.4575 21.674 25.8689 21.5027 25.3699 21.1708C24.9985 20.9281 24.5645 20.7989 24.1208 20.7989C23.6772 20.7989 23.2431 20.9281 22.8717 21.1708C22.3682 21.4914 21.7837 21.6616 21.1867 21.6616C20.5898 21.6616 20.0053 21.4914 19.5017 21.1708C19.1308 20.9283 18.6973 20.7991 18.2541 20.7991C17.811 20.7991 17.3774 20.9283 17.0066 21.1708C16.503 21.4915 15.9185 21.6618 15.3215 21.6618C14.7246 21.6618 14.1401 21.4915 13.6365 21.1708C13.2656 20.9283 12.8321 20.7991 12.389 20.7991C11.9458 20.7991 11.5123 20.9283 11.1414 21.1708C10.6431 21.5029 10.055 21.6742 9.45636 21.6618C8.85771 21.6742 8.26963 21.5029 7.77134 21.1708C7.40573 20.9171 6.96862 20.7868 6.52376 20.799C6.07904 20.7869 5.64209 20.9172 5.27661 21.1708C4.77911 21.5025 4.19197 21.6738 3.59418 21.6618C2.9954 21.6742 2.40719 21.5029 1.90874 21.1708C1.54239 20.9166 1.1043 20.7863 0.658569 20.799V19.9362C1.25721 19.9238 1.84527 20.0952 2.34358 20.4271C2.70953 20.6808 3.1469 20.8111 3.59203 20.799C4.03674 20.8111 4.47369 20.6808 4.83918 20.4271C5.33668 20.0955 5.92382 19.9242 6.5216 19.9362C7.12069 19.9235 7.70927 20.0948 8.20791 20.4271C8.57366 20.6809 9.01092 20.8112 9.45592 20.799C9.90093 20.8112 10.3382 20.6809 10.7039 20.4271C11.2074 20.1064 11.792 19.9361 12.389 19.9361C12.9859 19.9361 13.5705 20.1064 14.074 20.4271C14.4449 20.6697 14.8785 20.7989 15.3218 20.7989C15.765 20.7989 16.1986 20.6697 16.5696 20.4271C17.0731 20.1064 17.6576 19.9361 18.2546 19.9361C18.8515 19.9361 19.4361 20.1064 19.9396 20.4271C20.3105 20.6697 20.7442 20.7989 21.1874 20.7989C21.6306 20.7989 22.0642 20.6697 22.4352 20.4271C22.9392 20.1066 23.5242 19.9363 24.1215 19.9363C24.7188 19.9363 25.3038 20.1066 25.8078 20.4271C26.1794 20.6696 26.6136 20.7988 27.0573 20.7988C27.5011 20.7988 27.9352 20.6696 28.3068 20.4271C28.8057 20.0954 29.3941 19.9241 29.9932 19.9362V20.799C29.5472 20.7864 29.1088 20.9167 28.7421 21.1708C28.2435 21.5024 27.6554 21.6737 27.0567 21.6618Z" fill="white"/>
<path d="M27.0554 18.6418C26.4566 18.654 25.8685 18.4827 25.3699 18.1508C25.004 17.8971 24.5666 17.7669 24.1215 17.779C23.7948 17.7678 23.4704 17.8374 23.1772 17.9817L22.7967 17.2052C23.2085 17.0034 23.663 16.9038 24.1215 16.9149C24.721 16.9027 25.3098 17.0745 25.8087 17.4071C26.1806 17.6503 26.6153 17.7797 27.0597 17.7797C27.5041 17.7797 27.9388 17.6503 28.3107 17.4071C28.8085 17.076 29.3954 16.9047 29.9932 16.9162V17.779C29.5481 17.7668 29.1107 17.8969 28.7447 18.1504C28.2449 18.4827 27.6554 18.6542 27.0554 18.6418Z" fill="white"/>
<path d="M21.1841 18.6412C20.5864 18.6538 19.9991 18.4826 19.5017 18.1508C19.1307 17.908 18.6969 17.7788 18.2535 17.7788C17.8101 17.7788 17.3763 17.908 17.0053 18.1508C16.5017 18.4714 15.917 18.6417 15.32 18.6417C14.723 18.6417 14.1384 18.4714 13.6348 18.1508C13.2638 17.9082 12.8301 17.779 12.3868 17.779C11.9435 17.779 11.5098 17.9082 11.1388 18.1508C10.6406 18.4822 10.0529 18.6533 9.45463 18.6412C8.85599 18.6536 8.26793 18.4823 7.76962 18.1503C7.40367 17.8966 6.96629 17.7663 6.52117 17.7785C6.07781 17.7665 5.64221 17.8965 5.2779 18.1495C4.7795 18.482 4.19107 18.6537 3.59203 18.6412C2.99339 18.6536 2.40533 18.4823 1.90701 18.1503C1.54107 17.8966 1.10369 17.7663 0.658569 17.7785V16.9157C1.25735 16.9032 1.84556 17.0746 2.34401 17.4066C2.70976 17.6604 3.14703 17.7907 3.59203 17.7785C4.03723 17.7907 4.47468 17.6602 4.84047 17.4062C5.33786 17.0743 5.9251 16.9031 6.5229 16.9157C7.12153 16.9033 7.70958 17.0747 8.20791 17.4066C8.57366 17.6604 9.01092 17.7907 9.45592 17.7785C9.90105 17.7906 10.3384 17.6603 10.7044 17.4066C11.208 17.086 11.7926 16.9157 12.3896 16.9157C12.9866 16.9157 13.5712 17.086 14.0748 17.4066C14.4459 17.6492 14.8795 17.7784 15.3228 17.7784C15.7661 17.7784 16.1998 17.6492 16.5709 17.4066C17.0745 17.0858 17.6593 16.9153 18.2565 16.9153C18.8537 16.9153 19.4385 17.0858 19.9422 17.4066C20.3222 17.6622 20.7729 17.7921 21.2307 17.778C21.264 17.7785 21.2973 17.7767 21.3304 17.7729L21.4451 18.6279C21.3585 18.638 21.2713 18.6424 21.1841 18.6412Z" fill="white"/>
<path d="M27.0567 15.6227C26.4575 15.6349 25.8689 15.4636 25.3699 15.1318C24.9985 14.8891 24.5645 14.7598 24.1208 14.7598C23.6772 14.7598 23.2431 14.8891 22.8717 15.1318C22.3682 15.4523 21.7837 15.6226 21.1867 15.6226C20.5898 15.6226 20.0053 15.4523 19.5017 15.1318C19.1308 14.8892 18.6973 14.7601 18.2541 14.7601C17.811 14.7601 17.3774 14.8892 17.0066 15.1318C16.503 15.4524 15.9185 15.6227 15.3215 15.6227C14.7246 15.6227 14.1401 15.4524 13.6365 15.1318C13.2656 14.8892 12.8321 14.7601 12.389 14.7601C11.9458 14.7601 11.5123 14.8892 11.1414 15.1318C10.6431 15.4638 10.055 15.6351 9.45636 15.6227C8.85771 15.6351 8.26963 15.4638 7.77134 15.1318C7.40573 14.8781 6.96862 14.7478 6.52376 14.7599C6.07904 14.7478 5.64209 14.8781 5.27661 15.1318C4.77911 15.4634 4.19197 15.6347 3.59418 15.6227C2.9954 15.6351 2.40719 15.4638 1.90874 15.1318C1.54239 14.8776 1.1043 14.7473 0.658569 14.7599V13.8971C1.25721 13.8848 1.84527 14.0561 2.34358 14.3881C2.70953 14.6418 3.1469 14.772 3.59203 14.7599C4.03674 14.772 4.47369 14.6417 4.83918 14.3881C5.33668 14.0564 5.92382 13.8851 6.5216 13.8971C7.12069 13.8844 7.70927 14.0558 8.20791 14.3881C8.57366 14.6418 9.01092 14.7721 9.45592 14.7599C9.90093 14.7721 10.3382 14.6418 10.7039 14.3881C11.2074 14.0674 11.792 13.897 12.389 13.897C12.9859 13.897 13.5705 14.0674 14.074 14.3881C14.4449 14.6306 14.8785 14.7598 15.3218 14.7598C15.765 14.7598 16.1986 14.6306 16.5696 14.3881C17.0731 14.0674 17.6576 13.897 18.2546 13.897C18.8515 13.897 19.4361 14.0674 19.9396 14.3881C20.3105 14.6306 20.7442 14.7598 21.1874 14.7598C21.6306 14.7598 22.0642 14.6306 22.4352 14.3881C22.9392 14.0675 23.5242 13.8973 24.1215 13.8973C24.7188 13.8973 25.3038 14.0675 25.8078 14.3881C26.1794 14.6306 26.6136 14.7597 27.0573 14.7597C27.5011 14.7597 27.9352 14.6306 28.3068 14.3881C28.8057 14.0563 29.3941 13.885 29.9932 13.8971V14.7599C29.5472 14.7473 29.1088 14.8776 28.7421 15.1318C28.2435 15.4634 27.6554 15.6347 27.0567 15.6227Z" fill="white"/>
<path d="M20.9093 15.2549L20.0953 14.9693C20.305 14.3669 20.3906 13.7284 20.3471 13.0921C20.3036 12.4558 20.1318 11.8348 19.8421 11.2666L16.8788 5.46401C16.8496 5.40671 16.8335 5.34359 16.8318 5.27927C16.8301 5.21495 16.8428 5.15107 16.869 5.09229C16.8952 5.03352 16.9342 4.98135 16.9831 4.9396C17.0321 4.89785 17.0897 4.86758 17.1519 4.851L23.0572 3.27643C23.2497 3.2261 23.4144 3.10182 23.5157 2.93062C23.617 2.75942 23.6466 2.55515 23.598 2.36226C23.5494 2.16937 23.4267 2.00346 23.2564 1.90063C23.0861 1.79779 22.8821 1.76635 22.6888 1.81315L15.5415 3.52146C15.3887 3.55756 15.2463 3.62836 15.1253 3.72836C15.0042 3.82835 14.9079 3.95487 14.8436 4.09811C14.7793 4.24135 14.7489 4.39746 14.7546 4.55435C14.7604 4.71125 14.8022 4.86471 14.8768 5.00285L16.9992 8.94576C17.053 9.04598 17.0651 9.1634 17.0328 9.27247C17.0005 9.38154 16.9264 9.47343 16.8266 9.52814L14.0873 11.038L13.671 10.2822L16.0359 8.97855L14.1179 5.41181C13.9807 5.15719 13.9039 4.87443 13.8935 4.58538C13.883 4.29633 13.9391 4.00875 14.0576 3.74487C14.176 3.481 14.3535 3.24789 14.5764 3.06358C14.7993 2.87928 15.0617 2.74871 15.3431 2.68197L22.4869 0.974095C22.9028 0.869008 23.3434 0.933436 23.7118 1.1532C24.0802 1.37297 24.3462 1.73008 24.4513 2.14597C24.5564 2.56186 24.4919 3.00245 24.2722 3.37084C24.0524 3.73922 23.6953 4.00522 23.2794 4.11031L17.8896 5.54684L20.6108 10.8736C20.9535 11.546 21.1565 12.2808 21.2079 13.0337C21.2592 13.7867 21.1576 14.5422 20.9093 15.2549Z" fill="white"/>
<path d="M12.1631 11.1211L6.92072 14.0098L7.33689 14.765L12.5792 11.8764L12.1631 11.1211Z" fill="white"/>
<path d="M24.8164 12.3869C24.1765 12.3869 23.551 12.1971 23.0189 11.8416C22.4869 11.4861 22.0722 10.9808 21.8273 10.3896C21.5824 9.79839 21.5183 9.14786 21.6432 8.52024C21.768 7.89263 22.0761 7.31613 22.5286 6.86365C22.9811 6.41117 23.5576 6.10302 24.1852 5.97819C24.8128 5.85335 25.4634 5.91742 26.0546 6.1623C26.6458 6.40718 27.1511 6.82187 27.5066 7.35394C27.8621 7.886 28.0519 8.51154 28.0519 9.15145C28.0509 10.0093 27.7098 10.8317 27.1032 11.4382C26.4966 12.0448 25.6742 12.386 24.8164 12.3869ZM24.8164 6.7788C24.3472 6.7788 23.8884 6.91795 23.4983 7.17866C23.1081 7.43937 22.804 7.80993 22.6244 8.24347C22.4448 8.67702 22.3978 9.15408 22.4894 9.61433C22.5809 10.0746 22.8069 10.4973 23.1387 10.8292C23.4705 11.161 23.8933 11.387 24.3535 11.4785C24.8138 11.5701 25.2909 11.5231 25.7244 11.3435C26.1579 11.1639 26.5285 10.8598 26.7892 10.4696C27.0499 10.0794 27.1891 9.62071 27.1891 9.15145C27.1883 8.52243 26.938 7.9194 26.4933 7.47461C26.0485 7.02983 25.4454 6.7796 24.8164 6.7788Z" fill="white"/>
</svg>
