<svg width="204" height="222" viewBox="0 0 204 222" fill="none" xmlns="http://www.w3.org/2000/svg">
<path d="M16.0933 16.7353V19.2215H1.83349V16.7353H16.0933ZM10.2922 10.6627V25.8084H7.64887V10.6627H10.2922Z" fill="#FF7152"/>
<path d="M16.0933 63.29V65.7762H1.83349V63.29H16.0933ZM10.2922 57.2174V72.3631H7.64887V57.2174H10.2922Z" fill="#E5E5E5"/>
<path d="M16.0933 109.844V112.33H1.83349V109.844H16.0933ZM10.2922 103.771V118.917H7.64887V103.771H10.2922Z" fill="#E5E5E5"/>
<path d="M62.648 16.7353V19.2215H48.3882V16.7353H62.648ZM56.8469 10.6627V25.8084H54.2036V10.6627H56.8469Z" fill="#E5E5E5"/>
<path d="M62.648 63.29V65.7762H48.3882V63.29H62.648ZM56.8469 57.2174V72.3631H54.2036V57.2174H56.8469Z" fill="#E5E5E5"/>
<path d="M62.648 109.844V112.33H48.3882V109.844H62.648ZM56.8469 103.771V118.917H54.2036V103.771H56.8469Z" fill="#E5E5E5"/>
<path d="M62.648 156.397V158.884H48.3882V156.397H62.648ZM56.8469 150.325V165.471H54.2036V150.325H56.8469Z" fill="#E5E5E5"/>
<path d="M109.202 16.7353V19.2215H94.9424V16.7353H109.202ZM103.401 10.6627V25.8084H100.758V10.6627H103.401Z" fill="#E5E5E5"/>
<path d="M109.202 63.29V65.7762H94.9424V63.29H109.202ZM103.401 57.2174V72.3631H100.758V57.2174H103.401Z" fill="#E5E5E5"/>
<path d="M109.202 109.844V112.33H94.9424V109.844H109.202ZM103.401 103.771V118.917H100.758V103.771H103.401Z" fill="#6246E5"/>
<path d="M109.202 156.397V158.884H94.9424V156.397H109.202ZM103.401 150.325V165.471H100.758V150.325H103.401Z" fill="#E5E5E5"/>
<path d="M109.202 202.952V205.438H94.9424V202.952H109.202ZM103.401 196.88V212.025H100.758V196.88H103.401Z" fill="#E5E5E5"/>
<path d="M155.756 16.7353V19.2215H141.496V16.7353H155.756ZM149.955 10.6627V25.8084H147.312V10.6627H149.955Z" fill="#E5E5E5"/>
<path d="M155.756 63.29V65.7762H141.496V63.29H155.756ZM149.955 57.2174V72.3631H147.312V57.2174H149.955Z" fill="#E5E5E5"/>
<path d="M155.756 109.844V112.33H141.496V109.844H155.756ZM149.955 103.771V118.917H147.312V103.771H149.955Z" fill="#E5E5E5"/>
<path d="M155.756 156.397V158.884H141.496V156.397H155.756ZM149.955 150.325V165.471H147.312V150.325H149.955Z" fill="#E5E5E5"/>
<path d="M155.756 202.952V205.438H141.496V202.952H155.756ZM149.955 196.88V212.025H147.312V196.88H149.955Z" fill="#E5E5E5"/>
<path d="M202.311 16.7353V19.2215H188.051V16.7353H202.311ZM196.51 10.6627V25.8084H193.866V10.6627H196.51Z" fill="#E5E5E5"/>
<path d="M202.311 63.29V65.7762H188.051V63.29H202.311ZM196.51 57.2174V72.3631H193.866V57.2174H196.51Z" fill="#E5E5E5"/>
<path d="M202.311 109.844V112.33H188.051V109.844H202.311ZM196.51 103.771V118.917H193.866V103.771H196.51Z" fill="#E5E5E5"/>
<path d="M202.311 156.397V158.884H188.051V156.397H202.311ZM196.51 150.325V165.471H193.866V150.325H196.51Z" fill="#E5E5E5"/>
<path d="M202.311 202.952V205.438H188.051V202.952H202.311ZM196.51 196.88V212.025H193.866V196.88H196.51Z" fill="#E5E5E5"/>
</svg>
