<svg width="67" height="67" viewBox="0 0 67 67" fill="none" xmlns="http://www.w3.org/2000/svg">
<path d="M66.893 37.1987V29.6218C66.893 28.1365 65.689 26.9324 64.2036 26.9324H61.3057C60.147 26.9324 59.1189 26.19 58.7547 25.09C58.3489 23.8647 57.856 22.6791 57.2832 21.5406C56.7616 20.5037 56.9613 19.2501 57.782 18.4293L59.8323 16.379C60.8826 15.3286 60.8826 13.6258 59.8323 12.5755L54.4746 7.21784C53.4243 6.16753 51.7215 6.16753 50.6712 7.21784L48.6208 9.26816C47.8 10.089 46.5464 10.2885 45.5095 9.76689C44.371 9.19416 43.1854 8.70118 41.9601 8.29546C40.8601 7.93121 40.1177 6.90311 40.1177 5.74441V2.84664C40.1177 1.36129 38.9136 0.157227 37.4283 0.157227H29.8514C28.3661 0.157227 27.162 1.36129 27.162 2.84664V5.74454C27.162 6.90324 26.4196 7.93134 25.3196 8.29559C24.0943 8.70132 22.9087 9.19429 21.7702 9.76702C20.7332 10.2886 19.4797 10.089 18.6588 9.26829L16.6085 7.21798C15.5582 6.16766 13.8554 6.16766 12.8051 7.21798L7.44769 12.5757C6.39737 13.626 6.39737 15.3288 7.44769 16.3791L9.498 18.4294C10.3187 19.2502 10.5183 20.5038 9.99673 21.5407C9.424 22.6792 8.93103 23.8648 8.5253 25.0902C8.26784 25.8675 7.67892 26.4662 6.94669 26.7506C6.64279 26.8686 6.44796 27.0662 6.10807 27.0662H3.21017C1.72482 27.0662 0.520752 28.2703 0.520752 29.7556V37.0649C0.520752 38.5502 1.72482 39.7543 3.21017 39.7543H6.10807C7.26677 39.7543 8.29487 40.6305 8.65912 41.7305C9.06484 42.9558 9.55782 44.1413 10.1305 45.2799C10.6522 46.3169 10.4525 47.5704 9.63182 48.3913L7.71532 50.4416C6.665 51.4919 6.665 53.1947 7.71532 54.245L12.8054 59.3351C13.8557 60.3854 15.5585 60.3854 16.6088 59.3351L18.6591 57.2847C19.4798 56.4639 20.7335 56.2644 21.7705 56.786C22.9089 57.3587 24.3622 57.9855 25.5875 58.3913C26.6875 58.7555 27.4299 59.7836 27.4299 60.9423V63.8402C27.4299 65.3256 28.634 66.5296 30.1193 66.5296H37.2947C38.7801 66.5296 39.9842 65.3256 39.9842 63.8402V60.9423C39.9842 60.6024 40.1818 60.4076 40.2998 60.1037C40.5842 59.3715 41.183 58.7825 41.9602 58.5251C43.1855 58.1193 44.3711 57.6264 45.5096 57.0536C46.5466 56.532 47.8002 56.7317 48.621 57.5524L50.6713 59.6027C51.7216 60.653 53.4244 60.653 54.4747 59.6027L59.8324 54.245C60.8827 53.1947 60.8827 51.4919 59.8324 50.4416L57.7821 48.3913C56.9614 47.5704 56.7618 46.3169 57.2834 45.2799C57.8561 44.1414 58.3491 42.9558 58.7548 41.7305C59.119 40.6305 60.1471 39.8881 61.3058 39.8881H64.2037C65.689 39.8881 66.893 38.684 66.893 37.1987Z" fill="#B6C4CF"/>
<path d="M40.3002 60.1044C40.1825 60.4081 40.1182 60.7373 40.1182 61.0772V63.9743C40.1182 65.4597 38.9139 66.664 37.4286 66.664H29.8519C28.3666 66.664 27.1623 65.4597 27.1623 63.9743V61.0772C27.1623 59.9184 26.4196 58.8893 25.3196 58.5254C24.0952 58.1199 22.9096 57.6275 21.7709 57.0547C20.7338 56.5329 19.4799 56.7322 18.6597 57.5525L16.6096 59.6026C15.5592 60.653 13.8557 60.653 12.8052 59.6026L7.44729 54.246C6.39818 53.1955 6.39818 51.492 7.44729 50.4416L9.49867 48.3916C10.319 47.5713 10.5183 46.3174 9.99647 45.2804C9.42374 44.1416 8.9313 42.956 8.52584 41.7316C8.16186 40.6316 7.13282 39.8889 5.97399 39.8889H3.07689C1.59154 39.8889 0.387207 38.6846 0.387207 37.1993V29.6226C0.387207 28.1373 1.59154 26.933 3.07689 26.933H5.97399C6.31388 26.933 6.64306 26.8687 6.94682 26.751C6.94414 26.9182 6.94281 27.0869 6.94281 27.2555C6.94281 45.3994 21.6518 60.1084 39.7957 60.1084C39.9643 60.1084 40.133 60.1071 40.3002 60.1044Z" fill="#9FACBA"/>
<path d="M33.64 55.489C45.8342 55.489 55.7195 45.6037 55.7195 33.4096C55.7195 21.2154 45.8342 11.3301 33.64 11.3301C21.4459 11.3301 11.5605 21.2154 11.5605 33.4096C11.5605 45.6037 21.4459 55.489 33.64 55.489Z" fill="#9FACBA"/>
<path d="M33.6401 50.8075C43.2476 50.8075 51.0361 43.0191 51.0361 33.4116C51.0361 23.8041 43.2476 16.0156 33.6401 16.0156C24.0326 16.0156 16.2441 23.8041 16.2441 33.4116C16.2441 43.0191 24.0326 50.8075 33.6401 50.8075Z" fill="#F8F7F7"/>
</svg>
