<svg width="90" height="94" viewBox="0 0 90 94" fill="none" xmlns="http://www.w3.org/2000/svg">
<path d="M31.6288 67.8985L29.1174 66.6963L14.1979 88.7559H30.8483L32.4528 87.7097V68.6536L31.6288 67.8985Z" fill="#407093"/>
<path d="M29.3444 66.8038L23.6979 64.1006H22.6337L6.66724 87.7084L7.61778 88.7546H14.4985L29.3444 66.8038Z" fill="#365E7D"/>
<path d="M35.4503 87.709H13.4334C12.4333 87.709 11.6224 88.5197 11.6224 89.5201V91.815C11.6224 92.815 12.4331 93.6257 13.4331 93.6259H35.4503C36.4505 93.6259 37.2613 92.8152 37.2613 91.815V89.5201C37.2613 88.5197 36.4505 87.709 35.4503 87.709V87.709Z" fill="#4A80AA"/>
<path d="M11.9971 91.815V89.52C11.9971 88.5199 12.808 87.709 13.8082 87.709H2.14603C1.14584 87.709 0.334961 88.5197 0.334961 89.52V91.815C0.334961 92.8152 1.14584 93.6259 2.14603 93.6259H13.808C12.8078 93.6259 11.9971 92.8152 11.9971 91.815V91.815Z" fill="#407093"/>
<path d="M28.5866 53.6973C27.9088 55.0953 27.5258 56.6629 27.5258 58.3212C27.5258 62.8528 30.3634 66.7184 34.3573 68.2476C36.072 67.7104 37.5955 66.7413 38.799 65.4655V63.1499L28.5866 53.6973Z" fill="#4A80AA"/>
<path d="M27.7045 58.3592C27.7045 56.7393 28.0791 55.2081 28.7423 53.8429L25.4779 50.8213H24.1533C22.1502 52.7109 20.8979 55.388 20.8979 58.3591C20.8979 64.0827 25.5377 68.7224 31.2613 68.7224C32.4536 68.7224 33.5969 68.5179 34.6625 68.1471C30.6123 66.7381 27.7045 62.8894 27.7045 58.3592V58.3592Z" fill="#407093"/>
<path d="M87.873 1.74656C86.2331 0.106616 83.5742 0.106616 81.9345 1.74656L77.927 5.75403V6.26194L82.9288 11.4762L83.8656 11.6926L87.8729 7.68512C89.513 6.04536 89.513 3.3865 87.873 1.74656V1.74656Z" fill="#FFD086"/>
<path d="M88.9809 3.72874C88.8059 3.00279 88.4397 2.31339 87.873 1.74656C86.2331 0.106616 83.5742 0.106616 81.9345 1.74656L77.927 5.75403V6.26194L80.579 9.02646C82.16 7.38124 83.7297 5.75767 84.537 4.95043C85.8827 3.6049 87.8481 3.59454 88.9809 3.72874V3.72874Z" fill="#FFC365"/>
<path d="M74.1532 12.4224C74.1072 12.4224 74.0607 12.42 74.0139 12.4155L27.7039 7.85719C26.9315 7.78117 26.3672 7.09359 26.4433 6.32126C26.5193 5.54894 27.2072 4.98501 27.9792 5.06048L74.2893 9.6186C75.0614 9.69462 75.6259 10.3822 75.5499 11.1545C75.4784 11.8803 74.8672 12.4224 74.1532 12.4224Z" fill="#365E7D"/>
<path d="M41.0977 21.0901C40.4745 21.0901 39.9051 20.6722 39.7396 20.0412C39.5427 19.2905 39.9917 18.5223 40.7422 18.3254L73.7958 9.65559C74.5463 9.45901 75.3146 9.90764 75.5114 10.6583C75.7083 11.4088 75.2595 12.177 74.5088 12.3739L41.4552 21.0437C41.3356 21.075 41.2155 21.0901 41.0977 21.0901V21.0901Z" fill="#407093"/>
<path d="M83.1304 63.2139C82.4159 63.2139 81.8047 62.6712 81.7336 61.9453L77.2037 15.6068C77.1282 14.8347 77.693 14.1473 78.4653 14.0716C79.2377 13.9996 79.9249 14.5612 80.0004 15.3335L84.5303 61.672C84.6058 62.4441 84.0409 63.1315 83.2686 63.2072C83.2222 63.2115 83.176 63.2139 83.1304 63.2139Z" fill="#365E7D"/>
<path d="M69.8009 50.0605C69.6818 50.0605 69.5607 50.045 69.44 50.0132C68.6898 49.8143 68.243 49.045 68.442 48.2949L77.2394 15.1136C77.4382 14.3633 78.2072 13.9172 78.9576 14.1154C79.7077 14.3144 80.1545 15.0836 79.9556 15.8337L71.1581 49.015C70.9913 49.6446 70.4227 50.0605 69.8009 50.0605V50.0605Z" fill="#407093"/>
<path d="M73.8998 9.7793L77.9175 5.76162L83.8552 11.6994L79.8375 15.717L73.8998 9.7793Z" fill="#FFC365"/>
<path d="M76.9512 12.8145C77.9168 11.8034 79.4247 10.2264 80.8832 8.71009L77.9272 5.75391L73.9088 9.77211L76.9512 12.8145Z" fill="#FFA90F"/>
<path d="M80.742 18.011C80.3824 18.011 80.0227 17.8738 79.7485 17.5995L72.0211 9.87226C71.4722 9.32343 71.4722 8.43399 72.0211 7.88498C72.5697 7.33652 73.4593 7.33652 74.0082 7.88498L81.7356 15.6122C82.2844 16.1611 82.2844 17.0505 81.7356 17.5995C81.4612 17.8739 81.1017 18.011 80.742 18.011Z" fill="#4A80AA"/>
<path d="M81.6488 65.7427L34.6013 18.2871C28.3638 32.3686 27.2807 47.4851 31.9503 60.5204C44.8465 72.1535 64.111 73.9398 81.846 66.6272L81.6488 65.7427Z" fill="#B5DCFF"/>
<path d="M34.852 18.5397L24.0727 7.66699L22.9925 7.77356C15.398 26.1921 17.6155 46.2618 30.4867 59.1329C31.2663 59.9125 32.073 60.6523 32.9035 61.3541C27.4777 48.3342 28.3595 32.8488 34.852 18.5397V18.5397Z" fill="#8BCAFF"/>
<path d="M85.9484 62.3695L38.2322 14.6533C37.7627 14.7257 37.3106 14.9392 36.9491 15.3007L34.8736 17.3764C34.4279 17.8221 34.2062 18.4042 34.1998 18.9885L81.7647 66.5532C82.4719 67.2604 83.6185 67.2604 84.3257 66.5532L85.9486 64.9305C86.6556 64.2235 86.6556 63.0767 85.9484 62.3695Z" fill="#DBEDFF"/>
<path d="M34.9452 17.4114L36.9774 15.3792C37.3516 15.005 37.8243 14.7907 38.312 14.7327L27.2503 3.67104C26.5431 2.96382 25.3965 2.96382 24.6891 3.67104L23.0662 5.29389C22.359 6.00111 22.359 7.14769 23.0662 7.85491L34.2834 19.0721C34.2687 18.4727 34.4878 17.8688 34.9452 17.4114V17.4114Z" fill="#B5DCFF"/>
</svg>
