<svg width="130" height="337" viewBox="0 0 130 337" fill="none" xmlns="http://www.w3.org/2000/svg">
<path d="M11.799 18.3992C21.1455 7.07135 44.7788 -10.3452 64.5399 10.6113C84.3011 31.5679 57.6413 70.7906 41.8413 87.7824C34.0525 92.5024 17.8074 100.526 15.137 94.8623C11.7989 87.7824 9.79612 72.9146 37.168 60.1707C54.7484 52.6188 92.713 44.5949 103.929 72.9146C109.047 85.1864 109.937 113.695 72.5512 129.554L25.8187 150.086M25.8187 150.086C8.01583 150.799 -17.5758 142.311 22.4807 102.65C35.1652 96.5143 65.8752 84.1009 87.2387 83.5345C99.4781 86.1304 123.022 98.9687 119.284 129.554C119.729 135.69 111.406 150.935 74.5541 162.83C66.0978 164.717 47.1822 168.635 39.1709 169.201L10.4638 173.449L25.8187 150.086ZM25.8187 150.086C37.5005 146.782 65.0707 141.165 81.8978 145.13C102.932 150.086 111.273 145.838 127.963 173.449C130.856 187.609 128.764 216.637 97.2528 219.469C65.7417 222.301 45.4019 216.873 39.1709 213.805V187.609M39.1709 187.609C62.0921 189.733 111.273 188.176 124.625 164.953C131.078 148.434 131.568 114.686 81.8978 111.854C69.8809 112.326 44.2447 113.836 37.8357 116.102L39.1709 166.369C62.5372 168.493 111.673 178.547 121.287 201.769C126.405 215.221 128.096 243.541 93.9147 249.204C81.2302 249.676 52.5231 247.93 39.1709 237.169M39.1709 187.609V237.169M39.1709 187.609C53.6357 191.149 85.5029 200.919 97.2528 211.681C111.495 223.481 132.369 252.744 101.926 275.4C92.3569 278.94 66.9433 281.772 41.8413 264.78M39.1709 237.169L41.8413 264.78M39.1709 237.169C55.1935 248.496 87.9063 275.967 90.5767 295.224C91.6894 307.024 88.7074 331.615 67.878 335.579C62.5372 336.523 49.3186 336.429 39.1709 328.5L41.8413 264.78" stroke="#84829A" stroke-width="1.33012"/>
</svg>
