<svg width="28" height="27" viewBox="0 0 28 27" fill="none" xmlns="http://www.w3.org/2000/svg">
<path d="M24.7463 3.70917L15.6017 23.661C15.5252 23.8281 15.3955 23.9652 15.2328 24.0507C15.0701 24.1363 14.8836 24.1655 14.7026 24.1338C14.5215 24.1021 14.3561 24.0113 14.2321 23.8756C14.1081 23.7399 14.0326 23.5669 14.0174 23.3838L13.2443 14.1089L3.96941 13.3358C3.78623 13.3205 3.61326 13.245 3.47755 13.1211C3.34184 12.9971 3.25104 12.8316 3.21935 12.6506C3.18767 12.4695 3.21689 12.2831 3.30243 12.1204C3.38798 11.9577 3.52504 11.8279 3.69217 11.7514L23.644 2.60683C23.7982 2.53615 23.9704 2.51435 24.1374 2.54436C24.3044 2.57438 24.4582 2.65477 24.5782 2.77474C24.6981 2.89471 24.7785 3.04852 24.8086 3.21551C24.8386 3.3825 24.8168 3.55468 24.7461 3.70892L24.7463 3.70917Z" fill="#080809"/>
</svg>
