<svg width="106" height="27" viewBox="0 0 106 27" fill="none" xmlns="http://www.w3.org/2000/svg">
<g clip-path="url(#clip0_2465_2)">
<path d="M15.6038 13.6569L2.24468 26.5208C1.61909 26.0933 1.24767 25.3821 1.25424 24.6244V2.68932C1.24767 1.93164 1.61909 1.2205 2.24468 0.792969L15.6038 13.6569Z" fill="#2196F3"/>
<path d="M20.2782 9.16474L15.6037 13.6581L2.24463 0.79414C2.29496 0.755129 2.34739 0.718836 2.40163 0.685431C3.10768 0.257502 3.98958 0.243687 4.7087 0.649195L20.2782 9.16474Z" fill="#4CAF50"/>
<path d="M25.9434 13.6593C25.9522 14.5147 25.4874 15.3047 24.7356 15.7127L20.2785 18.1526L15.604 13.6593L20.2785 9.16602L24.7356 11.6059C25.4874 12.0139 25.9522 12.804 25.9434 13.6593Z" fill="#F0BB1F"/>
<path d="M20.2782 18.1515L4.7087 26.6671C3.988 27.0663 3.10943 27.0525 2.40163 26.6308C2.34739 26.5974 2.29496 26.5611 2.24463 26.5221L15.6038 13.6582L20.2782 18.1515Z" fill="#F15A2B"/>
</g>
<path d="M41.5633 6.84416H37.8283V8.3339H39.8182C39.5522 9.04684 38.9031 9.48312 37.9134 9.48312C36.4663 9.48312 35.5724 8.55736 35.5724 7.29108C35.5724 5.98224 36.5088 5.05648 37.7645 5.05648C38.6051 5.05648 39.2755 5.43955 39.5841 5.92904L41.0312 5.09904C40.4034 4.09879 39.201 3.39648 37.7751 3.39648C35.5831 3.39648 33.8699 5.12032 33.8699 7.28044C33.8699 9.41928 35.5511 11.1431 37.8922 11.1431C39.9778 11.1431 41.5633 9.75979 41.5633 7.48262V6.84416Z" fill="white"/>
<path d="M43.6937 9.35543V8.03595H46.3539V6.41852H43.6937V5.18417H46.6199V3.54546H41.9911V10.9941H46.6731V9.35543H43.6937Z" fill="white"/>
<path d="M52.1029 3.54546H46.5696V5.18417H48.485V10.9941H50.1876V5.18417H52.1029V3.54546Z" fill="white"/>
<path d="M54.4444 3.54546V10.9941H56.1469V3.54546H54.4444Z" fill="white"/>
<path d="M61.8959 3.54546H56.3626V5.18417H58.278V10.9941H59.9806V5.18417H61.8959V3.54546Z" fill="white"/>
<path d="M67.7915 11.1431C69.9303 11.1431 71.6648 9.46184 71.6648 7.2698C71.6648 5.07776 69.9303 3.39648 67.7915 3.39648C65.6526 3.39648 63.9181 5.07776 63.9181 7.2698C63.9181 9.46184 65.6526 11.1431 67.7915 11.1431ZM67.7915 9.48312C66.5784 9.48312 65.6207 8.59992 65.6207 7.2698C65.6207 5.93968 66.5784 5.05648 67.7915 5.05648C69.0045 5.05648 69.9622 5.93968 69.9622 7.2698C69.9622 8.59992 69.0045 9.48312 67.7915 9.48312Z" fill="white"/>
<path d="M76.2413 3.54546V7.58903L73.3682 3.54546H72.0913V10.9941H73.7939V6.95057L76.6669 10.9941H77.9439V3.54546H76.2413Z" fill="white"/>
<path d="M41.5633 19.4963V19.7836C41.5633 20.7129 41.2334 21.4968 40.5737 22.1352C39.9139 22.7666 39.0449 23.0823 37.9666 23.0823C36.8316 23.0823 35.8952 22.7134 35.1574 21.9756C34.4197 21.2308 34.0508 20.3192 34.0508 19.2409C34.0508 18.1626 34.4161 17.2546 35.1468 16.5168C35.8775 15.7719 36.8032 15.3995 37.9241 15.3995C38.6051 15.3995 39.2294 15.5627 39.7969 15.889C40.3715 16.2153 40.8149 16.6516 41.127 17.1978L40.6269 17.4958C40.3786 17.0276 40.0097 16.6516 39.5202 16.3678C39.0378 16.0841 38.5058 15.9422 37.9241 15.9422C36.9593 15.9422 36.1648 16.2614 35.5405 16.8999C34.9233 17.5312 34.6147 18.3116 34.6147 19.2409C34.6147 20.1702 34.9269 20.9541 35.5511 21.5925C36.1754 22.2239 36.9806 22.5396 37.9666 22.5396C38.8392 22.5396 39.5451 22.3019 40.0842 21.8267C40.6233 21.3514 40.9248 20.7519 40.9887 20.0283H37.8283V19.4963H41.5633Z" fill="white"/>
<path d="M49.1166 21.965C48.3717 22.7099 47.4637 23.0823 46.3925 23.0823C45.3213 23.0823 44.4132 22.7099 43.6684 21.965C42.9235 21.213 42.5511 20.305 42.5511 19.2409C42.5511 18.1768 42.9235 17.2723 43.6684 16.5274C44.4132 15.7755 45.3213 15.3995 46.3925 15.3995C47.4637 15.3995 48.3717 15.7755 49.1166 16.5274C49.8614 17.2723 50.2339 18.1768 50.2339 19.2409C50.2339 20.305 49.8614 21.213 49.1166 21.965ZM44.0621 21.5819C44.7006 22.2204 45.4773 22.5396 46.3925 22.5396C47.3076 22.5396 48.0808 22.2204 48.7122 21.5819C49.3507 20.9364 49.6699 20.156 49.6699 19.2409C49.6699 18.3258 49.3507 17.549 48.7122 16.9105C48.0808 16.265 47.3076 15.9422 46.3925 15.9422C45.4773 15.9422 44.7006 16.265 44.0621 16.9105C43.4307 17.549 43.115 18.3258 43.115 19.2409C43.115 20.156 43.4307 20.9364 44.0621 21.5819Z" fill="white"/>
<path d="M57.8039 21.965C57.059 22.7099 56.151 23.0823 55.0798 23.0823C54.0086 23.0823 53.1006 22.7099 52.3557 21.965C51.6109 21.213 51.2384 20.305 51.2384 19.2409C51.2384 18.1768 51.6109 17.2723 52.3557 16.5274C53.1006 15.7755 54.0086 15.3995 55.0798 15.3995C56.151 15.3995 57.059 15.7755 57.8039 16.5274C58.5488 17.2723 58.9212 18.1768 58.9212 19.2409C58.9212 20.305 58.5488 21.213 57.8039 21.965ZM52.7495 21.5819C53.3879 22.2204 54.1647 22.5396 55.0798 22.5396C55.9949 22.5396 56.7682 22.2204 57.3996 21.5819C58.038 20.9364 58.3572 20.156 58.3572 19.2409C58.3572 18.3258 58.038 17.549 57.3996 16.9105C56.7682 16.265 55.9949 15.9422 55.0798 15.9422C54.1647 15.9422 53.3879 16.265 52.7495 16.9105C52.1181 17.549 51.8024 18.3258 51.8024 19.2409C51.8024 20.156 52.1181 20.9364 52.7495 21.5819Z" fill="white"/>
<path d="M67.4383 19.4963V19.7836C67.4383 20.7129 67.1084 21.4968 66.4487 22.1352C65.789 22.7666 64.92 23.0823 63.8417 23.0823C62.7066 23.0823 61.7702 22.7134 61.0325 21.9756C60.2947 21.2308 59.9258 20.3192 59.9258 19.2409C59.9258 18.1626 60.2911 17.2546 61.0218 16.5168C61.7525 15.7719 62.6783 15.3995 63.7991 15.3995C64.4801 15.3995 65.1044 15.5627 65.6719 15.889C66.2465 16.2153 66.6899 16.6516 67.002 17.1978L66.5019 17.4958C66.2536 17.0276 65.8847 16.6516 65.3953 16.3678C64.9129 16.0841 64.3808 15.9422 63.7991 15.9422C62.8343 15.9422 62.0398 16.2614 61.4155 16.8999C60.7984 17.5312 60.4898 18.3116 60.4898 19.2409C60.4898 20.1702 60.8019 20.9541 61.4262 21.5925C62.0504 22.2239 62.8556 22.5396 63.8417 22.5396C64.7142 22.5396 65.4201 22.3019 65.9592 21.8267C66.4984 21.3514 66.7999 20.7519 66.8637 20.0283H63.7033V19.4963H67.4383Z" fill="white"/>
<path d="M69.4157 22.4332H72.9272V22.9652H68.8517V15.5166H69.4157V22.4332Z" fill="white"/>
<path d="M74.6635 22.4332H78.3878V22.9652H74.0995V15.5166H78.3346V16.0486H74.6635V18.9429H78.0686V19.475H74.6635V22.4332Z" fill="white"/>
<path d="M85.1427 15.5166C85.8096 15.5166 86.3629 15.7365 86.8027 16.1763C87.2426 16.6161 87.4625 17.1659 87.4625 17.8256C87.4625 18.4854 87.2426 19.0352 86.8027 19.475C86.3629 19.9077 85.8096 20.1241 85.1427 20.1241H83.1742V22.9652H82.6102V15.5166H85.1427ZM85.1427 19.592C85.6535 19.592 86.072 19.4253 86.3984 19.0919C86.7318 18.7585 86.8985 18.3364 86.8985 17.8256C86.8985 17.3078 86.7318 16.8821 86.3984 16.5487C86.072 16.2153 85.6535 16.0486 85.1427 16.0486H83.1742V19.592H85.1427Z" fill="white"/>
<path d="M89.4195 22.4332H92.931V22.9652H88.8555V15.5166H89.4195V22.4332Z" fill="white"/>
<path d="M99.323 22.9652L98.5994 21.0711H94.8644L94.1408 22.9652H93.5449L96.4393 15.5166H97.0352L99.9189 22.9652H99.323ZM95.0772 20.5391H98.3972L96.7372 16.2082L95.0772 20.5391Z" fill="white"/>
<path d="M105.219 15.5166L102.505 19.9006V22.9652H101.941V19.9006L99.2279 15.5166H99.8663L102.229 19.3579L104.58 15.5166H105.219Z" fill="white"/>
<defs>
<clipPath id="clip0_2465_2">
<rect width="26.6024" height="26.6024" fill="white" transform="translate(0.297607 0.354492)"/>
</clipPath>
</defs>
</svg>
