<svg width="98" height="25" viewBox="0 0 98 25" fill="none" xmlns="http://www.w3.org/2000/svg">
<path d="M6.30181 21.9629C3.13441 21.9446 0.514404 15.4789 0.514404 12.186C0.514404 6.8072 4.54945 5.62962 6.10453 5.62962C6.80534 5.62962 7.55366 5.90483 8.21369 6.14837C8.67524 6.31825 9.15259 6.49362 9.41807 6.49362C9.57698 6.49362 9.95145 6.34444 10.2821 6.21355C10.9872 5.93285 11.8645 5.58398 12.8862 5.58398C12.8881 5.58398 12.8905 5.58398 12.8923 5.58398C13.6552 5.58398 15.9684 5.75141 17.3591 7.83987L17.6848 8.3294L17.216 8.68317C16.5462 9.18853 15.3242 10.1104 15.3242 11.9364C15.3242 14.0992 16.7082 14.9309 17.3731 15.3309C17.6666 15.5075 17.9704 15.6896 17.9704 16.0878C17.9704 16.3478 15.8953 21.9306 12.882 21.9306C12.1446 21.9306 11.6234 21.709 11.1637 21.5135C10.6985 21.3156 10.2972 21.1452 9.63418 21.1452C9.29807 21.1452 8.87306 21.3041 8.4231 21.4727C7.80821 21.7022 7.11222 21.9629 6.32251 21.9629H6.30181Z" fill="white"/>
<path d="M13.2055 0.682617C13.284 3.51228 11.2603 5.47538 9.23902 5.35226C8.90595 3.09409 11.2601 0.682617 13.2055 0.682617Z" fill="white"/>
<path d="M29.2339 7.33472H30.6305L28.7311 1.74821H27.103L25.2036 7.33472H26.6002L26.8796 6.45684H28.9546L29.2339 7.33472ZM27.2626 5.25973L27.9171 3.20868L28.5715 5.25973H27.2626Z" fill="white"/>
<path d="M33.4569 3.34436L32.6269 5.87425L31.7969 3.34436H30.4721L31.9486 7.33472H33.3053L34.7817 3.34436H33.4569Z" fill="white"/>
<path d="M37.9621 3.34436V3.71945C37.6988 3.41618 37.3077 3.23263 36.773 3.23263C35.7275 3.23263 34.8656 4.15041 34.8656 5.33954C34.8656 6.52867 35.7275 7.44645 36.773 7.44645C37.3077 7.44645 37.6988 7.26289 37.9621 6.95963V7.33472H39.1592V3.34436H37.9621ZM37.0124 6.31319C36.4617 6.31319 36.0627 5.93809 36.0627 5.33954C36.0627 4.74098 36.4617 4.36589 37.0124 4.36589C37.5631 4.36589 37.9621 4.74098 37.9621 5.33954C37.9621 5.93809 37.5631 6.31319 37.0124 6.31319Z" fill="white"/>
<path d="M40.0375 7.33472H41.2346V1.50879H40.0375V7.33472Z" fill="white"/>
<path d="M42.7092 2.9932C43.1002 2.9932 43.4274 2.66599 43.4274 2.27494C43.4274 1.88388 43.1002 1.55667 42.7092 1.55667C42.3181 1.55667 41.9909 1.88388 41.9909 2.27494C41.9909 2.66599 42.3181 2.9932 42.7092 2.9932ZM42.1106 7.33472H43.3077V3.34436H42.1106V7.33472Z" fill="white"/>
<path d="M46.57 3.23263C46.0352 3.23263 45.6442 3.41618 45.3808 3.71945V1.74821H44.1837V7.33472H45.3808V6.95963C45.6442 7.26289 46.0352 7.44645 46.57 7.44645C47.6154 7.44645 48.4774 6.52867 48.4774 5.33954C48.4774 4.15041 47.6154 3.23263 46.57 3.23263ZM46.3305 6.31319C45.7799 6.31319 45.3808 5.93809 45.3808 5.33954C45.3808 4.74098 45.7799 4.36589 46.3305 4.36589C46.8812 4.36589 47.2802 4.74098 47.2802 5.33954C47.2802 5.93809 46.8812 6.31319 46.3305 6.31319Z" fill="white"/>
<path d="M49.1561 7.33472H50.3532V1.50879H49.1561V7.33472Z" fill="white"/>
<path d="M52.2986 5.81838H55.1318C55.1637 5.66675 55.1797 5.50713 55.1797 5.33954C55.1797 4.13445 54.3177 3.23263 53.1526 3.23263C51.8916 3.23263 51.0297 4.15041 51.0297 5.33954C51.0297 6.52867 51.8756 7.44645 53.2403 7.44645C53.9985 7.44645 54.5891 7.16713 54.9801 6.62444L54.0225 6.07377C53.8628 6.24934 53.5835 6.37703 53.2563 6.37703C52.8174 6.37703 52.4503 6.23338 52.2986 5.81838ZM52.2747 4.92454C52.3864 4.51752 52.6897 4.29406 53.1446 4.29406C53.5037 4.29406 53.8628 4.46166 53.9905 4.92454H52.2747Z" fill="white"/>
<path d="M59.7692 7.44645C60.9424 7.44645 61.8841 6.52867 61.8841 5.33954C61.8841 4.15041 60.9424 3.23263 59.7692 3.23263C58.596 3.23263 57.6543 4.15041 57.6543 5.33954C57.6543 6.52867 58.596 7.44645 59.7692 7.44645ZM59.7692 6.28127C59.2505 6.28127 58.8514 5.90617 58.8514 5.33954C58.8514 4.77291 59.2505 4.39781 59.7692 4.39781C60.288 4.39781 60.687 4.77291 60.687 5.33954C60.687 5.90617 60.288 6.28127 59.7692 6.28127Z" fill="white"/>
<path d="M64.8996 3.23263C64.3728 3.23263 63.9738 3.42416 63.7583 3.71945V3.34436H62.5612V7.33472H63.7583V5.15598C63.7583 4.58935 64.0616 4.33397 64.5005 4.33397C64.8836 4.33397 65.1949 4.56541 65.1949 5.06021V7.33472H66.392V4.88464C66.392 3.80724 65.7056 3.23263 64.8996 3.23263Z" fill="white"/>
<path d="M71.5476 4.49358V3.34436H70.7256V2.22705L69.5285 2.58619V3.34436H68.89V4.49358H69.5285V5.90617C69.5285 7.02347 69.9834 7.49434 71.5476 7.33472V6.24934C71.0209 6.28127 70.7256 6.24934 70.7256 5.90617V4.49358H71.5476Z" fill="white"/>
<path d="M74.5637 3.23263C74.037 3.23263 73.638 3.42416 73.4225 3.71945V1.74821H72.2254V7.33472H73.4225V5.15598C73.4225 4.58935 73.7258 4.33397 74.1647 4.33397C74.5478 4.33397 74.859 4.56541 74.859 5.06021V7.33472H76.0561V4.88464C76.0561 3.80724 75.3698 3.23263 74.5637 3.23263Z" fill="white"/>
<path d="M77.9476 5.81838H80.7808C80.8127 5.66675 80.8287 5.50713 80.8287 5.33954C80.8287 4.13445 79.9667 3.23263 78.8016 3.23263C77.5406 3.23263 76.6787 4.15041 76.6787 5.33954C76.6787 6.52867 77.5246 7.44645 78.8893 7.44645C79.6475 7.44645 80.2381 7.16713 80.6292 6.62444L79.6715 6.07377C79.5118 6.24934 79.2325 6.37703 78.9053 6.37703C78.4664 6.37703 78.0993 6.23338 77.9476 5.81838ZM77.9237 4.92454C78.0354 4.51752 78.3387 4.29406 78.7936 4.29406C79.1527 4.29406 79.5118 4.46166 79.6395 4.92454H77.9237Z" fill="white"/>
<path d="M31.9207 21.9661H34.2484L31.0827 12.6552H28.3693L25.2036 21.9661H27.5313L27.9969 20.5029H31.4552L31.9207 21.9661ZM28.6353 18.5077L29.726 15.0893L30.8167 18.5077H28.6353Z" fill="white"/>
<path d="M38.9529 15.1292C38.0617 15.1292 37.41 15.4352 36.971 15.9406V15.3155H34.9758V24.6263H36.971V21.3409C37.41 21.8463 38.0617 22.1523 38.9529 22.1523C40.6954 22.1523 42.1319 20.6226 42.1319 18.6408C42.1319 16.6589 40.6954 15.1292 38.9529 15.1292ZM38.5539 20.2635C37.6361 20.2635 36.971 19.6383 36.971 18.6408C36.971 17.6432 37.6361 17.018 38.5539 17.018C39.4717 17.018 40.1367 17.6432 40.1367 18.6408C40.1367 19.6383 39.4717 20.2635 38.5539 20.2635Z" fill="white"/>
<path d="M47.2402 15.1292C46.349 15.1292 45.6973 15.4352 45.2583 15.9406V15.3155H43.2631V24.6263H45.2583V21.3409C45.6973 21.8463 46.349 22.1523 47.2402 22.1523C48.9827 22.1523 50.4192 20.6226 50.4192 18.6408C50.4192 16.6589 48.9827 15.1292 47.2402 15.1292ZM46.8412 20.2635C45.9234 20.2635 45.2583 19.6383 45.2583 18.6408C45.2583 17.6432 45.9234 17.018 46.8412 17.018C47.7589 17.018 48.424 17.6432 48.424 18.6408C48.424 19.6383 47.7589 20.2635 46.8412 20.2635Z" fill="white"/>
<path d="M51.5504 21.9661H53.5456V12.2562H51.5504V21.9661Z" fill="white"/>
<path d="M56.788 19.4388H61.5099C61.5631 19.1861 61.5897 18.9201 61.5897 18.6408C61.5897 16.6323 60.1532 15.1292 58.2112 15.1292C56.1096 15.1292 54.6731 16.6589 54.6731 18.6408C54.6731 20.6226 56.083 22.1523 58.3575 22.1523C59.6211 22.1523 60.6054 21.6867 61.2572 20.7822L59.661 19.8645C59.395 20.1571 58.9295 20.3699 58.3841 20.3699C57.6525 20.3699 57.0407 20.1305 56.788 19.4388ZM56.7481 17.9491C56.9343 17.2707 57.4397 16.8983 58.1979 16.8983C58.7965 16.8983 59.395 17.1776 59.6078 17.9491H56.7481Z" fill="white"/>
<path d="M69.372 22.1523C71.3937 22.1523 72.8303 21.0882 72.8303 19.2925C72.8303 17.3239 71.2474 16.8318 69.8375 16.4061C68.3877 15.9672 68.1615 15.6746 68.1615 15.2489C68.1615 14.8765 68.4941 14.544 69.1591 14.544C70.0104 14.544 70.4494 14.9563 70.7686 15.6214L72.5642 14.5706C71.8859 13.2006 70.6888 12.469 69.1591 12.469C67.5497 12.469 66.0334 13.5065 66.0334 15.3021C66.0334 17.0845 67.3901 17.7496 68.7734 18.1353C70.17 18.521 70.7021 18.7472 70.7021 19.3191C70.7021 19.6782 70.4494 20.0773 69.4385 20.0773C68.3877 20.0773 67.8157 19.5585 67.4832 18.7871L65.6476 19.8512C66.1664 21.2212 67.4167 22.1523 69.372 22.1523Z" fill="white"/>
<path d="M77.5298 17.2308V15.3155H76.1597V13.4533L74.1646 14.0518V15.3155H73.1005V17.2308H74.1646V19.5851C74.1646 21.4473 74.9227 22.2321 77.5298 21.9661V20.1571C76.6519 20.2103 76.1597 20.1571 76.1597 19.5851V17.2308H77.5298Z" fill="white"/>
<path d="M81.7218 22.1523C83.6771 22.1523 85.2466 20.6226 85.2466 18.6408C85.2466 16.6589 83.6771 15.1292 81.7218 15.1292C79.7665 15.1292 78.197 16.6589 78.197 18.6408C78.197 20.6226 79.7665 22.1523 81.7218 22.1523ZM81.7218 20.2103C80.8572 20.2103 80.1922 19.5851 80.1922 18.6408C80.1922 17.6964 80.8572 17.0712 81.7218 17.0712C82.5864 17.0712 83.2515 17.6964 83.2515 18.6408C83.2515 19.5851 82.5864 20.2103 81.7218 20.2103Z" fill="white"/>
<path d="M88.3704 16.4993V15.3155H86.3752V21.9661H88.3704V18.96C88.3704 17.6432 89.5409 17.3106 90.3655 17.4436V15.1824C89.5276 15.1824 88.6364 15.6081 88.3704 16.4993Z" fill="white"/>
<path d="M92.8857 19.4388H97.6076C97.6608 19.1861 97.6874 18.9201 97.6874 18.6408C97.6874 16.6323 96.2509 15.1292 94.3089 15.1292C92.2073 15.1292 90.7708 16.6589 90.7708 18.6408C90.7708 20.6226 92.1807 22.1523 94.4552 22.1523C95.7189 22.1523 96.7031 21.6867 97.3549 20.7822L95.7588 19.8645C95.4927 20.1571 95.0272 20.3699 94.4818 20.3699C93.7503 20.3699 93.1384 20.1305 92.8857 19.4388ZM92.8458 17.9491C93.032 17.2707 93.5375 16.8983 94.2956 16.8983C94.8942 16.8983 95.4927 17.1776 95.7056 17.9491H92.8458Z" fill="white"/>
</svg>
