<svg width="22" height="22" viewBox="0 0 22 22" fill="none" xmlns="http://www.w3.org/2000/svg">
<g clip-path="url(#clip0_302_1915)">
<path d="M18.2507 0.688477H3.20365C1.48489 0.688477 0.0861816 2.08718 0.0861816 3.80595V18.8529C0.0861816 20.5721 1.48489 21.9704 3.20365 21.9704H18.2507C19.9698 21.9704 21.3681 20.5721 21.3681 18.8529V3.80595C21.3681 2.08718 19.9698 0.688477 18.2507 0.688477ZM20.1211 18.8529C20.1211 19.8842 19.2819 20.7234 18.2507 20.7234H3.20365C2.17239 20.7234 1.33317 19.8842 1.33317 18.8529V3.80595C1.33317 2.77469 2.17239 1.93547 3.20365 1.93547H18.2507C19.2819 1.93547 20.1211 2.77469 20.1211 3.80595V18.8529Z" fill="white"/>
<path d="M17.5854 3.22461C16.8979 3.22461 16.3384 3.78409 16.3384 4.4716C16.3384 5.15911 16.8979 5.71859 17.5854 5.71859C18.2729 5.71859 18.8324 5.15911 18.8324 4.4716C18.8324 3.78409 18.2729 3.22461 17.5854 3.22461Z" fill="white"/>
<path d="M10.7269 5.71973C7.63273 5.71973 5.11548 8.23698 5.11548 11.3312C5.11548 14.4254 7.63273 16.9426 10.7269 16.9426C13.8211 16.9426 16.3384 14.4254 16.3384 11.3312C16.3384 8.23698 13.8211 5.71973 10.7269 5.71973ZM10.7269 15.6956C8.32024 15.6956 6.36247 13.7379 6.36247 11.3312C6.36247 8.92449 8.32024 6.96672 10.7269 6.96672C13.1336 6.96672 15.0914 8.92449 15.0914 11.3312C15.0914 13.7379 13.1336 15.6956 10.7269 15.6956Z" fill="white"/>
</g>
<defs>
<clipPath id="clip0_302_1915">
<rect width="21.2819" height="21.2819" fill="white" transform="translate(0.0859375 0.69043)"/>
</clipPath>
</defs>
</svg>
