<svg width="22" height="18" viewBox="0 0 22 18" fill="none" xmlns="http://www.w3.org/2000/svg">
<path d="M21.3333 2.3996C20.54 2.74676 19.6947 2.97687 18.8133 3.0886C19.72 2.54857 20.412 1.69995 20.7373 0.677089C19.892 1.17987 18.9587 1.53502 17.964 1.73321C17.1613 0.880597 16.0173 0.352539 14.7693 0.352539C12.348 0.352539 10.3987 2.31314 10.3987 4.71667C10.3987 5.0625 10.428 5.39503 10.5 5.7116C6.864 5.53469 3.64667 3.79622 1.48533 1.14795C1.108 1.80104 0.886667 2.54857 0.886667 3.35329C0.886667 4.86431 1.66667 6.20374 2.82933 6.9792C2.12667 6.9659 1.43733 6.76239 0.853333 6.44184C0.853333 6.45514 0.853333 6.47243 0.853333 6.48972C0.853333 8.60993 2.36933 10.371 4.35733 10.7767C4.00133 10.8738 3.61333 10.9204 3.21067 10.9204C2.93067 10.9204 2.648 10.9044 2.38267 10.8459C2.94933 12.5737 4.55733 13.844 6.46933 13.8852C4.98133 15.0464 3.092 15.746 1.04667 15.746C0.688 15.746 0.344 15.7301 0 15.6862C1.93733 16.9325 4.23333 17.6441 6.70933 17.6441C14.7573 17.6441 19.1573 10.9935 19.1573 5.22876C19.1573 5.0359 19.1507 4.84968 19.1413 4.66479C20.0093 4.05028 20.7387 3.2828 21.3333 2.3996Z" fill="#080809"/>
</svg>
