<svg width="159" height="204" viewBox="0 0 159 204" fill="none" xmlns="http://www.w3.org/2000/svg">
<path d="M96.3472 115.663C94.5405 116.067 92.7809 116.816 91.1776 117.862C87.0006 120.523 84.571 124.322 85.7513 126.349C86.9316 128.375 91.2745 127.859 95.4515 125.199C97.0764 124.189 98.5197 122.899 99.6928 121.406C100.237 120.685 100.335 119.787 99.9417 119.115L98.4084 116.483C98.0183 115.808 97.2094 115.487 96.3472 115.663Z" fill="#D5D6DB"/>
<path d="M85.8568 79.7602C84.5468 80.0532 83.2707 80.5963 82.108 81.3554C79.08 83.2839 77.3173 86.039 78.1724 87.5069C79.0276 88.9749 82.1779 88.6009 85.2056 86.6726C86.3837 85.9401 87.4302 85.0037 88.281 83.9216C88.6752 83.399 88.7457 82.7479 88.4609 82.2606L87.3507 80.3548C87.0682 79.866 86.4821 79.6327 85.8568 79.7602Z" fill="#D5D6DB"/>
<path d="M68.8123 81.2524C68.5207 81.2196 68.2097 81.2972 67.9401 81.4693L60.8275 85.9997C60.2325 86.3775 59.9946 87.1056 60.2966 87.6263C60.3656 87.7456 60.4601 87.8475 60.5748 87.9261L78.1115 100.026L101.828 84.919L68.8123 81.2524Z" fill="#029BC5"/>
<path d="M143.802 79.5715L79.2517 120.2L41.0596 135.384L21.5811 139.247L19.4371 135.602L127.033 69.1837C130.24 67.1959 133.812 65.9767 137.389 65.6501C138.955 65.5155 140.502 65.5686 141.994 65.8075C143.316 66.009 144.57 66.3968 145.719 66.9594C147.002 67.5968 149.443 67.6718 150.233 68.9406C150.236 68.9386 152.102 74.7628 143.802 79.5715V79.5715Z" fill="#E1E6E9"/>
<path d="M80.1009 114.804L52.1842 159.331C51.8355 159.957 52.0428 160.657 52.6466 160.896C53.0172 161.043 53.4707 160.986 53.8516 160.744L60.9592 156.236C62.3262 155.369 63.5366 154.267 64.5155 152.998L118.661 89.3242L80.1009 114.804Z" fill="#029BC5"/>
<path d="M9.63327 113.32C9.1674 113.161 8.61306 113.243 8.14518 113.541L2.27055 117.28C1.47009 117.789 1.15133 118.769 1.55834 119.468C1.63589 119.601 1.7366 119.719 1.85732 119.815L18.3229 133.013L35.6284 122.21L9.63327 113.32Z" fill="#029BC5"/>
<path d="M23.8365 135.384L14.9784 147.795C14.8486 147.973 14.8792 148.197 15.0468 148.295C15.1676 148.366 15.3326 148.353 15.4666 148.263L20.9573 144.785C20.9999 144.758 21.0385 144.724 21.0704 144.685L34.0142 128.942L23.8365 135.384Z" fill="#029BC5"/>
<path d="M140.937 66.3351C139.401 66.0874 137.808 66.0336 136.195 66.1745C134.625 68.3706 133.622 70.838 133.285 73.3307C133.261 73.8315 133.664 74.1921 134.187 74.1364C134.349 74.1188 134.511 74.0618 134.656 73.9704L144.774 67.5306C143.591 66.9462 142.299 66.5437 140.937 66.3351Z" fill="#029BC5"/>
<path d="M118.885 78.1826L125.49 74.0142L131.646 84.4851L125.041 88.6535L118.885 78.1826Z" fill="#D5D6DB"/>
<path d="M114.727 82.3238C113.931 82.8276 113.613 83.7969 114.018 84.4885L114.673 85.609C115.104 86.283 116.087 86.4021 116.869 85.875C117.614 85.3729 117.913 84.4597 117.554 83.7849L116.899 82.6644C116.495 81.9734 115.523 81.8207 114.727 82.3238V82.3238Z" fill="#3A556A"/>
<path d="M108.789 86.0113C107.993 86.5151 107.675 87.4844 108.08 88.176L108.735 89.2965C109.166 89.9705 110.149 90.0896 110.931 89.5625C111.676 89.0604 111.975 88.1472 111.616 87.4724L110.961 86.3519C110.557 85.6611 109.585 85.5085 108.789 86.0113V86.0113Z" fill="#3A556A"/>
<path d="M102.849 89.7028C102.054 90.2073 101.737 91.1754 102.141 91.8664L102.796 92.9868C103.227 93.6608 104.21 93.78 104.993 93.2528C105.737 92.7508 106.037 91.8376 105.678 91.1629L105.023 90.0424C104.618 89.3508 103.645 89.1988 102.849 89.7028V89.7028Z" fill="#3A556A"/>
<path d="M96.9108 93.3883C96.1158 93.8928 95.799 94.8609 96.203 95.552L96.8581 96.6725C97.289 97.3465 98.2723 97.4656 99.0545 96.9384C99.7989 96.4364 100.099 95.5231 99.7395 94.8484L99.0844 93.7279C98.6797 93.0365 97.7067 92.8845 96.9108 93.3883V93.3883Z" fill="#3A556A"/>
<path d="M90.9732 97.0754C90.1777 97.5801 89.8607 98.5487 90.265 99.24L90.9204 100.361C91.3245 101.052 92.2971 101.204 93.0928 100.7C93.8885 100.197 94.2059 99.2283 93.8019 98.5372L93.1464 97.4163C92.7433 96.7246 91.7711 96.5716 90.9749 97.0744C90.9742 97.0748 90.9739 97.075 90.9732 97.0754Z" fill="#3A556A"/>
<path d="M85.035 100.764C84.2394 101.269 83.9225 102.237 84.3267 102.928L84.9822 104.049C85.3863 104.74 86.3589 104.892 87.1546 104.389C87.9502 103.885 88.2677 102.917 87.8636 102.226L87.2082 101.105C86.8051 100.413 85.8328 100.26 85.0366 100.763C85.036 100.763 85.0353 100.764 85.035 100.764Z" fill="#3A556A"/>
<path d="M79.0964 104.453C78.3009 104.958 77.984 105.927 78.3882 106.618L79.0437 107.739C79.4488 108.429 80.4218 108.58 81.2167 108.075C82.0101 107.572 82.3269 106.606 81.9247 105.915L81.2693 104.794C80.8654 104.103 79.8928 103.95 79.0964 104.453Z" fill="#3A556A"/>
<path d="M73.1581 108.139C72.3626 108.644 72.0456 109.612 72.4499 110.303L73.1053 111.424C73.5104 112.115 74.4835 112.265 75.2783 111.761C76.0718 111.258 76.3886 110.291 75.9864 109.601L75.3309 108.48C74.927 107.788 73.9544 107.636 73.1581 108.139Z" fill="#3A556A"/>
<path d="M67.22 111.827C66.4245 112.332 66.1075 113.301 66.5118 113.992L67.1672 115.113C67.5723 115.803 68.5454 115.954 69.3402 115.449C70.1337 114.946 70.4505 113.98 70.0483 113.289L69.3928 112.168C68.9886 111.477 68.016 111.324 67.22 111.827Z" fill="#3A556A"/>
<path d="M61.2799 115.515C60.4842 116.019 60.1668 116.987 60.5709 117.678L60.5717 117.679L61.2272 118.8C61.6322 119.491 62.6053 119.641 63.4001 119.137C64.1936 118.634 64.5104 117.667 64.1082 116.977L63.4527 115.856C63.0488 115.164 62.0763 115.012 61.2799 115.515Z" fill="#3A556A"/>
<path d="M55.3434 119.202C54.5477 119.706 54.2303 120.674 54.6343 121.365L54.6352 121.367L55.2907 122.488C55.6957 123.178 56.6688 123.329 57.4637 122.824C58.2572 122.321 58.574 121.355 58.1717 120.664L57.5163 119.543C57.112 118.852 56.1394 118.699 55.3434 119.202Z" fill="#3A556A"/>
</svg>
