<svg width="94" height="94" viewBox="0 0 94 94" fill="none" xmlns="http://www.w3.org/2000/svg">
<circle cx="46.8572" cy="47.2398" r="46.5543" fill="url(#paint0_linear_302_2009)"/>
<path d="M70.281 32.596C71.2005 34.1888 71.0772 36.0853 69.958 37.5449L45.3856 69.6104C44.3722 70.9326 42.7036 71.6068 40.9974 71.2793C39.3266 70.9579 38.0018 69.74 37.5421 68.1019L33.9062 55.1616L33.5275 53.8157L32.5512 52.8148L23.1626 43.1959C21.9738 41.9787 21.5815 40.2224 22.1386 38.6148C22.69 37.0256 24.0729 35.8724 25.778 35.6489L65.8337 30.4013C67.6574 30.1619 69.3614 31.0034 70.281 32.596Z" fill="white"/>
<path d="M33.9066 55.1611L37.5424 68.1013C38.0022 69.7394 39.3269 70.9573 40.9978 71.2787C42.7041 71.6063 44.3727 70.9322 45.386 69.6098L69.9584 37.5444C71.0776 36.0847 71.2009 34.1882 70.2813 32.5955L33.5279 53.8151L33.9066 55.1611Z" fill="white"/>
<path d="M48.4841 45.1794C48.858 45.8271 48.6367 46.6559 47.9881 47.0303L33.9065 55.1603L33.5278 53.8144L32.5515 52.8135L46.6331 44.6834C47.2817 44.3091 48.1101 44.5317 48.4841 45.1794Z" fill="url(#paint1_linear_302_2009)"/>
<path d="M33.9065 55.1617L47.9881 47.0317C48.6366 46.6573 48.8581 45.8285 48.4841 45.1808L33.5278 53.8158L33.9065 55.1617Z" fill="url(#paint2_linear_302_2009)"/>
<defs>
<linearGradient id="paint0_linear_302_2009" x1="66.3392" y1="3.29781" x2="26.3255" y2="104.122" gradientUnits="userSpaceOnUse">
<stop stop-color="#747DEF"/>
<stop offset="1" stop-color="#5E3BE1"/>
</linearGradient>
<linearGradient id="paint1_linear_302_2009" x1="43.409" y1="46.6327" x2="44.9221" y2="49.6667" gradientUnits="userSpaceOnUse">
<stop stop-color="#747DEF"/>
<stop offset="1" stop-color="#5E3BE1"/>
</linearGradient>
<linearGradient id="paint2_linear_302_2009" x1="44.0675" y1="47.7746" x2="44.871" y2="49.2699" gradientUnits="userSpaceOnUse">
<stop stop-color="#747DEF"/>
<stop offset="1" stop-color="#5E3BE1"/>
</linearGradient>
</defs>
</svg>
