<svg width="205" height="221" viewBox="0 0 205 221" fill="none" xmlns="http://www.w3.org/2000/svg">
<path d="M16.357 202.702V205.188H2.09716V202.702H16.357ZM10.5559 196.63V211.775H7.91255V196.63H10.5559Z" fill="#E5E5E5"/>
<path d="M62.9112 156.147V158.634H48.6514V156.147H62.9112ZM57.1101 150.075V165.221H54.4667V150.075H57.1101Z" fill="#E5E5E5"/>
<path d="M109.465 16.4853V18.9715H95.2056V16.4853H109.465ZM103.664 10.4127V25.5584H101.021V10.4127H103.664Z" fill="#E5E5E5"/>
<path d="M109.465 63.04V65.5262H95.2056V63.04H109.465ZM103.664 56.9674V72.1131H101.021V56.9674H103.664Z" fill="#E5E5E5"/>
<path d="M109.465 109.594V112.08H95.2056V109.594H109.465ZM103.664 103.521V118.667H101.021V103.521H103.664Z" fill="#6246E5"/>
<path d="M109.465 156.147V158.634H95.2056V156.147H109.465ZM103.664 150.075V165.221H101.021V150.075H103.664Z" fill="#E5E5E5"/>
<path d="M109.465 202.702V205.188H95.2056V202.702H109.465ZM103.664 196.63V211.775H101.021V196.63H103.664Z" fill="#E5E5E5"/>
<path d="M156.02 16.4853V18.9715H141.76V16.4853H156.02ZM150.219 10.4127V25.5584H147.575V10.4127H150.219Z" fill="#E5E5E5"/>
<path d="M156.02 63.04V65.5262H141.76V63.04H156.02ZM150.219 56.9674V72.1131H147.575V56.9674H150.219Z" fill="#E5E5E5"/>
<path d="M156.02 109.594V112.08H141.76V109.594H156.02ZM150.219 103.521V118.667H147.575V103.521H150.219Z" fill="#E5E5E5"/>
<path d="M156.02 156.147V158.634H141.76V156.147H156.02ZM150.219 150.075V165.221H147.575V150.075H150.219Z" fill="#E5E5E5"/>
<path d="M156.02 202.702V205.188H141.76V202.702H156.02ZM150.219 196.63V211.775H147.575V196.63H150.219Z" fill="#E5E5E5"/>
<path d="M202.574 16.4853V18.9715H188.314V16.4853H202.574ZM196.773 10.4127V25.5584H194.129V10.4127H196.773Z" fill="#FF7152"/>
<path d="M202.574 63.04V65.5262H188.314V63.04H202.574ZM196.773 56.9674V72.1131H194.129V56.9674H196.773Z" fill="#E5E5E5"/>
<path d="M202.574 109.594V112.08H188.314V109.594H202.574ZM196.773 103.521V118.667H194.129V103.521H196.773Z" fill="#E5E5E5"/>
<path d="M202.574 156.147V158.634H188.314V156.147H202.574ZM196.773 150.075V165.221H194.129V150.075H196.773Z" fill="#E5E5E5"/>
<path d="M202.574 202.702V205.188H188.314V202.702H202.574ZM196.773 196.63V211.775H194.129V196.63H196.773Z" fill="#E5E5E5"/>
</svg>
