<svg width="644" height="489" viewBox="0 0 644 489" fill="none" xmlns="http://www.w3.org/2000/svg">
<g opacity="0.1">
<mask id="mask0_302_1990" style="mask-type:alpha" maskUnits="userSpaceOnUse" x="0" y="0" width="640" height="481">
<rect x="638.639" y="0.82717" width="478.844" height="637.128" transform="rotate(90 638.639 0.82717)" fill="url(#paint0_linear_302_1990)" stroke="#6246E5" stroke-width="1.33012"/>
</mask>
<g mask="url(#mask0_302_1990)">
<path d="M315.427 603.933C223.206 603.933 148.444 529.067 148.444 436.713C148.444 344.359 223.206 269.493 315.427 269.493C407.648 269.493 482.41 344.359 482.41 436.713C482.41 529.067 407.648 603.933 315.427 603.933Z" stroke="#6246E5" stroke-width="1.33012"/>
<path d="M333.074 610.561C229.889 610.561 146.239 526.794 146.239 423.46C146.239 320.126 229.889 236.358 333.074 236.358C436.26 236.358 519.91 320.126 519.91 423.46C519.91 526.794 436.26 610.561 333.074 610.561Z" stroke="#6246E5" stroke-width="1.33012"/>
<path d="M347.412 617.187C234.48 617.187 142.93 525.508 142.93 412.414C142.93 299.32 234.48 207.641 347.412 207.641C460.344 207.641 551.895 299.32 551.895 412.414C551.895 525.508 460.344 617.187 347.412 617.187Z" stroke="#6246E5" stroke-width="1.33012"/>
<path d="M368.369 621.605C246.909 621.605 148.445 523.003 148.445 401.369C148.445 279.735 246.909 181.133 368.369 181.133C489.829 181.133 588.293 279.735 588.293 401.369C588.293 523.003 489.829 621.605 368.369 621.605Z" stroke="#6246E5" stroke-width="1.33012"/>
<path d="M388.773 626.024C259.09 626.024 153.959 520.746 153.959 390.877C153.959 261.008 259.09 155.729 388.773 155.73C518.456 155.73 623.587 261.008 623.587 390.877C623.587 520.746 518.456 626.024 388.773 626.024Z" stroke="#6246E5" stroke-width="1.33012"/>
<path d="M411.935 631.546C269.46 631.546 153.959 515.883 153.959 373.204C153.959 230.525 269.46 114.862 411.935 114.862C554.41 114.862 669.911 230.525 669.911 373.204C669.911 515.883 554.41 631.546 411.935 631.546Z" stroke="#6246E5" stroke-width="1.33012"/>
</g>
</g>
<defs>
<linearGradient id="paint0_linear_302_1990" x1="979.862" y1="18.0748" x2="649.552" y2="644.028" gradientUnits="userSpaceOnUse">
<stop stop-color="#747DEF"/>
<stop offset="1" stop-color="#5E3BE1"/>
</linearGradient>
</defs>
</svg>
